<?xml version="1.0" encoding="UTF-8"?>
<svg xmlns="http://www.w3.org/2000/svg" viewBox="0 0 432.28 451.63">
  <g id="Background_Complete" data-name="Background Complete">
    <g>
      <polygon points="92.05 384.73 90.48 386.41 43.52 442.38 147.65 442.45 176.28 385.03 92.05 384.73" style="fill: #ebebeb;"/>
      <g>
        <polygon points="71.93 387.35 70.36 389.09 18.05 446.96 119.51 447.02 156.16 387.66 71.93 387.35" style="fill: #fafafa;"/>
        <path d="m71.93,387.35s.13-.01.38-.02c.27,0,.65,0,1.15-.01,1.03,0,2.54,0,4.5-.02,3.96,0,9.74,0,17.1,0,14.76.03,35.83.07,61.1.13h.4s-.21.34-.21.34c-10.79,17.5-23.28,37.75-36.62,59.38l-.08.12h-.14c-4.42,0-9.14,0-13.9,0-32.21-.03-62.29-.07-87.56-.09h-.5s.34-.37.34-.37c16.23-17.89,29.72-32.77,39.16-43.19,4.72-5.19,8.43-9.26,10.97-12.05,1.27-1.38,2.24-2.44,2.9-3.16.66-.71,1.01-1.06,1.01-1.06,0,0-.33.39-.96,1.12-.65.73-1.61,1.81-2.85,3.2-2.52,2.81-6.2,6.91-10.88,12.13-9.41,10.45-22.86,25.37-39.03,43.31l-.16-.37c25.27,0,55.35.01,87.56.02,4.76,0,9.48,0,13.9,0l-.22.12c13.36-21.61,25.86-41.85,36.68-59.35l.19.34c-25.24-.13-46.28-.25-61.02-.32-7.37-.05-13.16-.1-17.12-.12-1.97-.02-3.48-.04-4.52-.05-.5,0-.89-.02-1.16-.02-.26,0-.4-.02-.4-.02Z" style="fill: #e0e0e0;"/>
      </g>
      <path d="m110.61,436.3s-.25.03-.72.05c-.52,0-1.2.02-2.05.03-1.84,0-4.4,0-7.54.01-6.42-.04-15.19-.09-24.87-.15-9.69-.12-18.46-.22-24.87-.3-3.14-.06-5.7-.11-7.54-.15-.85-.03-1.53-.05-2.05-.07-.47-.02-.71-.04-.71-.06s.25-.03.71-.05c.52,0,1.2-.02,2.05-.03,1.84,0,4.4,0,7.54-.01,6.42.04,15.19.09,24.88.15,9.69.12,18.45.22,24.87.3,3.14.06,5.7.11,7.54.15.85.03,1.53.05,2.05.07.47.02.71.04.71.06Z" style="fill: #e0e0e0;"/>
      <path d="m113.62,430.1s-.24.03-.7.05c-.51,0-1.17.02-2,.03-1.8,0-4.3,0-7.36.02-6.26-.04-14.82-.09-24.27-.14-9.45-.12-18.01-.22-24.27-.3-3.06-.06-5.56-.11-7.35-.15-.83-.03-1.49-.05-2-.07-.46-.02-.7-.04-.7-.06s.24-.03.7-.05c.51,0,1.17-.02,2-.03,1.8,0,4.3,0,7.36-.02,6.26.04,14.82.09,24.27.14,9.45.12,18,.22,24.27.3,3.06.06,5.56.11,7.35.15.83.03,1.49.05,2,.07.46.02.7.04.7.06Z" style="fill: #e0e0e0;"/>
      <path d="m118.15,423.84s-.24.03-.69.05c-.5,0-1.15.02-1.96.03-1.77,0-4.22,0-7.22.02-6.15-.04-14.55-.09-23.82-.14-9.28-.11-17.67-.22-23.83-.29-3-.06-5.45-.11-7.22-.15-.81-.03-1.46-.05-1.96-.07-.45-.02-.68-.04-.68-.06s.24-.03.68-.05c.5,0,1.15-.02,1.96-.03,1.77,0,4.22-.01,7.22-.02,6.15.04,14.55.09,23.83.14,9.28.11,17.67.22,23.82.29,3,.06,5.45.11,7.22.15.81.03,1.46.05,1.96.07.45.02.68.04.68.06Z" style="fill: #e0e0e0;"/>
      <path d="m123.39,418.03s-.23.03-.67.05c-.49,0-1.13.02-1.92.03-1.73,0-4.13.01-7.07.02-6.03-.03-14.25-.08-23.34-.14-9.09-.11-17.31-.21-23.34-.29-2.94-.06-5.34-.11-7.07-.15-.79-.03-1.43-.05-1.92-.07-.44-.02-.67-.04-.67-.06s.23-.03.67-.05c.49,0,1.13-.02,1.92-.03,1.73,0,4.13-.01,7.07-.02,6.03.04,14.25.08,23.34.14,9.09.11,17.31.21,23.34.29,2.94.06,5.34.11,7.07.15.79.03,1.43.05,1.92.07.44.02.67.04.67.06Z" style="fill: #e0e0e0;"/>
      <path d="m127.26,411.94s-.23.03-.67.05c-.49,0-1.13.02-1.92.03-1.73,0-4.13.01-7.07.02-6.03-.04-14.25-.08-23.34-.14-9.09-.11-17.31-.21-23.34-.29-2.94-.06-5.34-.11-7.07-.15-.79-.03-1.43-.05-1.92-.07-.44-.02-.67-.04-.67-.06s.23-.03.67-.05c.49,0,1.13-.02,1.92-.03,1.73,0,4.13-.01,7.07-.02,6.03.04,14.25.08,23.34.14,9.08.11,17.31.21,23.34.29,2.94.06,5.34.11,7.07.15.79.03,1.43.05,1.92.07.44.02.67.04.67.06Z" style="fill: #e0e0e0;"/>
      <path d="m132.97,405.88s-.23.03-.67.05c-.49,0-1.13.02-1.92.03-1.73,0-4.13.01-7.07.02-6.03-.03-14.25-.08-23.34-.14-9.09-.11-17.31-.21-23.34-.29-2.94-.06-5.34-.11-7.07-.15-.79-.03-1.43-.05-1.92-.07-.44-.02-.67-.04-.67-.06s.23-.03.67-.05c.49,0,1.13-.02,1.92-.03,1.73,0,4.13-.01,7.07-.02,6.03.04,14.25.08,23.34.14,9.08.11,17.31.21,23.34.29,2.94.06,5.34.11,7.07.15.79.03,1.43.05,1.92.07.44.02.67.04.67.06Z" style="fill: #e0e0e0;"/>
      <path d="m137.16,399.97s-.23.03-.67.04c-.49,0-1.13.01-1.92.02-1.73,0-4.13,0-7.07-.01-6.03-.06-14.25-.15-23.33-.24-9.09-.15-17.31-.29-23.34-.39-2.94-.07-5.34-.13-7.07-.18-.79-.03-1.43-.06-1.92-.08-.44-.02-.67-.04-.67-.06,0-.02.23-.03.67-.04.49,0,1.13-.01,1.92-.02,1.73,0,4.13,0,7.07.01,6.03.06,14.25.15,23.34.24,9.08.15,17.31.29,23.33.39,2.94.07,5.34.13,7.07.18.79.03,1.43.06,1.92.08.44.02.67.04.67.06Z" style="fill: #e0e0e0;"/>
      <path d="m143.61,394.33s-.23.03-.67.04c-.49,0-1.13.01-1.92.02-1.73,0-4.13,0-7.07-.01-6.03-.06-14.25-.15-23.33-.24-9.09-.15-17.31-.29-23.34-.39-2.94-.07-5.34-.13-7.07-.18-.79-.03-1.43-.06-1.92-.08-.44-.02-.67-.04-.67-.06,0-.02.23-.03.67-.04.49,0,1.13-.01,1.92-.02,1.73,0,4.13,0,7.07.01,6.03.06,14.25.15,23.34.24,9.08.15,17.31.29,23.33.39,2.94.07,5.34.13,7.07.18.79.03,1.43.06,1.92.07.44.02.67.04.67.06Z" style="fill: #e0e0e0;"/>
    </g>
    <path d="m42.91,206.74c0-7.05,4.24-11.53,10.26-11.53s10.2,4.42,10.2,11.53-4.19,11.53-10.2,11.53-10.26-4.48-10.26-11.53Zm14.56,0c0-4.48-1.71-6.63-4.3-6.63s-4.3,2.21-4.3,6.63,1.77,6.63,4.3,6.63,4.3-2.15,4.3-6.63Zm20.28-11.05h7.02l-28.18,41.82h-7.02l28.18-41.82Zm-6.78,30.77c0-7.05,4.24-11.53,10.2-11.53s10.26,4.48,10.26,11.53-4.25,11.53-10.26,11.53-10.2-4.48-10.2-11.53Zm14.5,0c0-4.42-1.71-6.63-4.3-6.63s-4.3,2.15-4.3,6.63,1.77,6.63,4.3,6.63,4.3-2.21,4.3-6.63Z" style="fill: #ebebeb;"/>
    <g>
      <g>
        <path d="m378.67,43.97c3.76,24.98-13.48,48.28-38.51,52.06-25.03,3.77-48.38-13.41-52.14-38.39-3.77-24.98,13.48-48.28,38.51-52.05,25.03-3.77,48.38,13.41,52.14,38.39Z" style="fill: #f5f5f5;"/>
        <path d="m367.89,45.6c2.87,19.03-10.27,36.79-29.35,39.67-19.08,2.88-36.87-10.22-39.74-29.25-2.87-19.03,10.27-36.79,29.35-39.67,19.08-2.87,36.87,10.22,39.74,29.26Z" style="fill: #ebebeb;"/>
        <path d="m367.72,44.51c-.21.04-.58-1.45-1.54-4.02-.97-2.54-2.58-6.19-5.58-9.99-1.5-1.89-3.32-3.81-5.52-5.59-2.21-1.76-4.76-3.4-7.66-4.68-1.44-.64-2.97-1.22-4.56-1.66-1.59-.45-3.24-.82-4.95-1.02-1.7-.21-3.45-.33-5.23-.28-1.77.05-3.57.23-5.36.55-1.79.34-3.53.81-5.21,1.39-1.68.58-3.27,1.31-4.79,2.11-1.52.8-2.94,1.73-4.27,2.71-1.34.98-2.55,2.05-3.68,3.17-2.26,2.22-4.06,4.66-5.5,7.09-1.42,2.44-2.45,4.88-3.18,7.18-1.46,4.61-1.68,8.59-1.68,11.31.02,2.73.19,4.26-.02,4.3-.15.03-.68-1.44-1.02-4.24-.32-2.78-.4-6.96.9-11.9.65-2.46,1.64-5.1,3.07-7.74,1.45-2.63,3.31-5.3,5.68-7.73,1.18-1.22,2.47-2.4,3.89-3.47,1.41-1.08,2.93-2.1,4.56-2.98,1.63-.88,3.34-1.68,5.15-2.32,1.81-.64,3.69-1.14,5.62-1.51,1.94-.34,3.87-.53,5.79-.58,1.92-.05,3.8.1,5.64.34,1.84.24,3.62.66,5.32,1.17,1.71.5,3.33,1.15,4.87,1.87,3.08,1.44,5.76,3.27,8.05,5.22,2.27,1.97,4.13,4.09,5.61,6.16,2.96,4.16,4.37,8.09,5.06,10.81.67,2.74.7,4.3.54,4.33Z" style="fill: #e0e0e0;"/>
      </g>
      <path d="m340.36,70.82l.99,6-5.36.89-.97-5.84c-5.36.56-10.73-.26-14.05-2.08l1.86-7.03c3.01,1.54,7.11,2.35,11.03,2.08l-1.48-8.95c-6.19-.46-13.16-1.34-14.43-9.01-.94-5.68,2.38-11.24,10.69-13.61l-.98-5.95,5.36-.89.97,5.84c4.07-.34,8.16.08,11.42,1.47l-1.59,7.04c-2.99-1.1-5.93-1.55-8.66-1.43l1.51,9.11c6.18.41,13.05,1.31,14.3,8.87.92,5.58-2.35,11.07-10.6,13.48Zm-9.28-22.8l-1.26-7.61c-2.73,1.11-3.6,2.85-3.31,4.62.31,1.87,2.09,2.63,4.57,2.99Zm11.36,11.39c-.31-1.88-2.03-2.64-4.47-3.06l1.22,7.4c2.58-1.03,3.53-2.62,3.25-4.34Z" style="fill: #e0e0e0;"/>
    </g>
    <g>
      <g>
        <path d="m430.07,311.5c-6.91,19.01-27.95,28.81-47,21.88-19.05-6.92-28.9-27.94-21.99-46.95,6.91-19.01,27.95-28.81,47-21.88,19.05,6.92,28.9,27.94,21.99,46.95Z" style="fill: #f5f5f5;"/>
        <path d="m421.86,308.51c-5.26,14.48-21.3,21.95-35.82,16.68-14.52-5.27-22.02-21.3-16.76-35.78,5.26-14.49,21.3-21.95,35.82-16.68,14.52,5.28,22.02,21.3,16.76,35.78Z" style="fill: #ebebeb;"/>
        <path d="m422.16,307.69c-.16-.05.15-1.25.45-3.41.29-2.16.55-5.34-.1-9.16-.33-1.9-.88-3.95-1.74-6.04-.88-2.08-2.05-4.21-3.6-6.22-.77-1.01-1.62-1.99-2.57-2.91-.95-.92-1.97-1.82-3.09-2.61-1.12-.8-2.3-1.55-3.57-2.19-1.27-.64-2.6-1.2-3.98-1.67-1.39-.45-2.8-.78-4.2-1.02-1.4-.24-2.8-.33-4.18-.35-1.38-.02-2.73.09-4.04.28-1.31.18-2.58.47-3.8.82-2.44.7-4.64,1.73-6.58,2.88-1.93,1.17-3.59,2.5-4.99,3.83-2.79,2.69-4.47,5.4-5.51,7.32-1.03,1.93-1.5,3.07-1.66,3.02-.12-.04.07-1.27.9-3.37.84-2.08,2.38-5.05,5.18-8.02,1.4-1.48,3.1-2.96,5.12-4.27,2.03-1.3,4.35-2.46,6.95-3.26,1.3-.41,2.65-.74,4.06-.95,1.41-.22,2.86-.36,4.35-.35,1.48,0,3,.1,4.51.34,1.51.24,3.03.61,4.53,1.09,1.49.5,2.93,1.11,4.29,1.81,1.37.7,2.64,1.52,3.84,2.4,1.2.87,2.29,1.85,3.29,2.86,1.01,1.01,1.91,2.08,2.71,3.18,1.62,2.19,2.81,4.5,3.67,6.75.84,2.26,1.34,4.45,1.59,6.48.49,4.06-.02,7.36-.58,9.54-.57,2.18-1.15,3.29-1.27,3.25Z" style="fill: #e0e0e0;"/>
      </g>
      <path d="m392.85,315.72l-1.6,4.6-4.11-1.43,1.55-4.48c-3.98-1.66-7.45-4.29-9.09-6.84l4-4.23c1.53,2.23,4.1,4.37,6.96,5.69l2.38-6.86c-4.18-2.69-8.74-5.98-6.7-11.86,1.51-4.36,5.97-7,12.72-5.48l1.58-4.56,4.11,1.43-1.56,4.48c3,1.32,5.71,3.18,7.47,5.4l-3.81,4.34c-1.68-1.92-3.58-3.36-5.55-4.32l-2.42,6.99c4.19,2.65,8.68,5.91,6.67,11.71-1.48,4.27-5.89,6.89-12.61,5.43Zm2.2-19.59l2.02-5.84c-2.35-.26-3.63.63-4.1,1.99-.5,1.44.46,2.65,2.07,3.85Zm3.63,12.36c.5-1.44-.42-2.63-1.97-3.86l-1.97,5.67c2.21.26,3.49-.49,3.94-1.81Z" style="fill: #e0e0e0;"/>
    </g>
    <rect x="27.56" y="28.68" width="227.32" height="148.13" style="fill: #f5f5f5;"/>
    <rect x="16.32" y="20.67" width="227.32" height="147.81" style="fill: #ebebeb;"/>
  </g>
  <g id="Desk">
    <path d="m425.52,374.82c0,.14-95.26.26-212.75.26s-212.77-.12-212.77-.26,95.24-.26,212.77-.26,212.75.12,212.75.26Z" style="fill: #263238;"/>
  </g>
  <g id="Sheet">
    <g>
      <polygon points="404.49 439.18 315.28 442.07 246.11 377.89 332.79 377.89 404.49 439.18" style="fill: #f5f5f5;"/>
      <polygon points="372.56 448.75 283.35 451.63 214.18 387.45 300.86 387.45 372.56 448.75" style="fill: #f5f5f5;"/>
      <polygon points="387.57 442.38 298.36 445.27 229.19 381.09 315.87 381.09 387.57 442.38" style="fill: #e0e0e0;"/>
      <g>
        <polygon points="304.82 377.89 218.14 377.89 287.31 442.07 379.38 439.09 304.82 377.89" style="fill: #f5f5f5;"/>
        <path d="m304.82,377.89s.12.08.35.27c.24.19.58.47,1.03.83.92.75,2.27,1.84,4.02,3.26,3.52,2.87,8.67,7.07,15.21,12.41,13.1,10.72,31.76,26,54.08,44.27l.47.39-.61.02c-25.88.85-56.13,1.84-88.29,2.89-1.27.04-2.53.08-3.77.12h-.11s-.08-.07-.08-.07c-25.47-23.65-49.18-45.67-69.14-64.21l-.41-.38h.56c26.1.04,47.77.07,62.94.1,7.56.03,13.49.05,17.55.06,2.01.01,3.56.02,4.61.03,1.04.01,1.57.03,1.57.03,0,0-.55.02-1.6.03-1.06,0-2.61.02-4.63.03-4.06.01-10.01.03-17.58.06-15.15.02-36.81.06-62.88.1l.15-.38c19.98,18.52,43.71,40.53,69.2,64.15l-.19-.07c1.24-.04,2.5-.08,3.77-.12,32.16-1.03,62.41-2,88.29-2.83l-.14.4c-22.25-18.31-40.85-33.63-53.91-44.38-6.51-5.38-11.64-9.62-15.15-12.52-1.74-1.45-3.08-2.56-3.99-3.32-.44-.37-.78-.66-1.02-.86-.23-.19-.34-.3-.34-.3Z" style="fill: #263238;"/>
      </g>
      <g>
        <path d="m335.9,414.91c0,.14-13.82.69-30.88,1.23-17.06.53-30.9.85-30.9.71,0-.14,13.82-.69,30.88-1.23,17.06-.53,30.89-.85,30.9-.71Z" style="fill: #263238;"/>
        <path d="m343.27,420.39c0,.14-14.04.69-31.37,1.22-17.33.53-31.39.84-31.39.7,0-.14,14.04-.69,31.37-1.22,17.33-.53,31.38-.84,31.39-.7Z" style="fill: #263238;"/>
        <path d="m351.06,425.87c0,.14-14.14.72-31.59,1.28-17.46.56-31.61.91-31.61.76,0-.14,14.14-.72,31.59-1.28,17.45-.56,31.6-.91,31.61-.76Z" style="fill: #263238;"/>
        <path d="m331.64,409.95c0,.14-14.23.71-31.78,1.27-17.56.56-31.79.89-31.8.75,0-.14,14.22-.71,31.78-1.27,17.55-.56,31.79-.89,31.8-.75Z" style="fill: #263238;"/>
      </g>
      <g>
        <path d="m302.24,389.43c0,.14-13.2.51-29.49.83-16.29.31-29.5.45-29.5.31,0-.14,13.2-.51,29.49-.83,16.29-.31,29.49-.45,29.5-.31Z" style="fill: #263238;"/>
        <path d="m309.61,394.9c0,.14-13.61.52-30.39.84-16.79.32-30.4.47-30.41.32,0-.14,13.6-.52,30.4-.84,16.79-.32,30.4-.47,30.4-.32Z" style="fill: #263238;"/>
        <path d="m316.99,400.38c0,.14-14.28.53-31.89.87-17.62.34-31.9.5-31.9.35,0-.14,14.27-.53,31.89-.87,17.61-.34,31.9-.5,31.9-.35Z" style="fill: #263238;"/>
        <path d="m324.36,405.86c0,.14-14.28.53-31.89.87-17.62.34-31.9.5-31.9.35,0-.14,14.27-.53,31.89-.87,17.61-.34,31.9-.5,31.9-.35Z" style="fill: #263238;"/>
        <path d="m297.98,384.47s-.21.04-.62.06c-.46.02-1.05.04-1.77.07-1.61.04-3.82.1-6.52.18-5.56.1-13.14.24-21.51.39-8.37.09-15.95.17-21.51.23-2.7,0-4.91,0-6.52.01-.72,0-1.31-.02-1.77-.02-.41-.01-.62-.03-.62-.04s.21-.04.62-.06c.46-.02,1.05-.04,1.77-.07,1.61-.04,3.82-.1,6.52-.18,5.56-.1,13.14-.24,21.51-.39,8.37-.09,15.94-.17,21.51-.23,2.7,0,4.91,0,6.52-.01.72,0,1.31.02,1.77.02.41.01.62.03.62.04Z" style="fill: #263238;"/>
      </g>
    </g>
  </g>
  <g id="Calculator_2" data-name="Calculator 2">
    <g>
      <polygon points="270.17 400.11 247.42 379.28 326.18 376.16 349.32 388.97 270.17 400.11" style="fill: #455a64;"/>
      <g>
        <g>
          <polygon points="256.6 382.19 261.03 385.98 261.01 383.28 256.33 379.78 256.6 382.19" style="fill: #263238;"/>
          <polygon points="260.96 383.45 267.34 383.24 262.21 379.51 256.33 379.78 260.96 383.45" style="fill: #ff725e;"/>
          <polygon points="260.96 383.45 261.03 385.98 267.26 385.58 267.34 383.24 260.96 383.45" style="fill: #263238;"/>
          <path d="m267.34,383.24c-.08.12-2.38-1.36-5.14-3.3-.1-.07-.21-.15-.3-.21l.16.05c-3.2.15-5.73.15-5.74.02s2.51-.37,5.71-.54h.09s.07.05.07.05c.1.07.2.14.3.21,2.75,1.94,4.92,3.61,4.83,3.73Z" style="fill: #263238;"/>
          <path d="m261.01,385.98c-.14,0-.27-.55-.29-1.25-.02-.69.08-1.26.23-1.26.14,0,.27.55.29,1.25.02.69-.08,1.26-.23,1.26Z" style="fill: #455a64;"/>
        </g>
        <g>
          <polygon points="267.28 381.99 271.7 385.78 271.68 383.08 267 379.58 267.28 381.99" style="fill: #263238;"/>
          <polygon points="271.64 383.25 278.01 383.04 272.88 379.31 267 379.58 271.64 383.25" style="fill: #e0e0e0;"/>
          <polygon points="271.64 383.25 271.7 385.78 277.93 385.38 278.01 383.04 271.64 383.25" style="fill: #263238;"/>
          <path d="m278.01,383.04c-.08.12-2.38-1.36-5.14-3.3-.1-.07-.21-.15-.3-.21l.16.05c-3.2.15-5.73.15-5.74.02,0-.14,2.51-.37,5.71-.54h.09s.07.05.07.05c.1.07.2.14.3.21,2.75,1.94,4.92,3.61,4.84,3.73Z" style="fill: #263238;"/>
          <path d="m271.68,385.78c-.14,0-.27-.55-.29-1.25-.02-.69.08-1.26.23-1.26.14,0,.27.55.29,1.25.02.69-.08,1.26-.23,1.26Z" style="fill: #455a64;"/>
        </g>
        <g>
          <polygon points="277.5 381.86 281.92 385.65 281.9 382.95 277.22 379.45 277.5 381.86" style="fill: #263238;"/>
          <polygon points="281.86 383.12 288.23 382.9 283.1 379.18 277.22 379.45 281.86 383.12" style="fill: #455a64;"/>
          <polygon points="281.86 383.12 281.92 385.65 288.15 385.24 288.23 382.9 281.86 383.12" style="fill: #263238;"/>
          <path d="m288.23,382.9c-.08.12-2.38-1.36-5.14-3.3-.1-.07-.21-.15-.3-.21l.16.05c-3.2.15-5.73.15-5.74.02,0-.14,2.51-.37,5.71-.54h.09s.07.05.07.05c.1.07.2.14.3.21,2.75,1.94,4.92,3.61,4.84,3.73Z" style="fill: #263238;"/>
          <path d="m281.9,385.65c-.14,0-.27-.55-.29-1.25-.02-.69.08-1.26.23-1.26.14,0,.27.55.29,1.25.02.69-.08,1.26-.23,1.26Z" style="fill: #455a64;"/>
        </g>
        <g>
          <polygon points="288.14 381.55 292.56 385.34 292.54 382.64 287.86 379.14 288.14 381.55" style="fill: #263238;"/>
          <polygon points="292.5 382.81 298.87 382.6 293.74 378.87 287.86 379.14 292.5 382.81" style="fill: #455a64;"/>
          <polygon points="292.5 382.81 292.56 385.34 298.79 384.94 298.87 382.6 292.5 382.81" style="fill: #263238;"/>
          <path d="m298.87,382.6c-.08.12-2.38-1.36-5.14-3.3-.1-.07-.21-.15-.3-.21l.16.05c-3.2.15-5.73.15-5.74.02,0-.14,2.51-.37,5.71-.54h.09s.07.05.07.05c.1.07.2.14.3.21,2.75,1.94,4.92,3.61,4.84,3.73Z" style="fill: #263238;"/>
          <path d="m292.54,385.34c-.14,0-.27-.55-.29-1.25-.02-.69.08-1.26.23-1.26.14,0,.27.55.29,1.25.02.69-.08,1.26-.23,1.26Z" style="fill: #455a64;"/>
        </g>
        <g>
          <polygon points="298.93 381.28 303.35 385.08 303.33 382.37 298.65 378.88 298.93 381.28" style="fill: #263238;"/>
          <polygon points="303.29 382.55 309.67 382.33 304.53 378.61 298.65 378.88 303.29 382.55" style="fill: #455a64;"/>
          <polygon points="303.29 382.55 303.35 385.08 309.58 384.67 309.67 382.33 303.29 382.55" style="fill: #263238;"/>
          <path d="m309.67,382.33c-.08.12-2.38-1.36-5.14-3.3-.1-.07-.21-.15-.3-.21l.16.05c-3.2.15-5.73.15-5.74.02,0-.14,2.51-.37,5.71-.54h.09s.07.05.07.05c.1.07.2.14.3.21,2.75,1.94,4.92,3.61,4.84,3.73Z" style="fill: #263238;"/>
          <path d="m303.33,385.08c-.14,0-.27-.55-.29-1.25-.02-.69.08-1.26.23-1.26.14,0,.27.55.29,1.25.02.69-.08,1.26-.23,1.26Z" style="fill: #455a64;"/>
        </g>
        <g>
          <polygon points="309.23 380.8 313.66 384.59 313.64 381.89 308.96 378.39 309.23 380.8" style="fill: #263238;"/>
          <polygon points="313.59 382.06 319.97 381.85 314.84 378.12 308.96 378.39 313.59 382.06" style="fill: #455a64;"/>
          <polygon points="313.59 382.06 313.66 384.59 319.89 384.19 319.97 381.85 313.59 382.06" style="fill: #263238;"/>
          <path d="m319.97,381.85c-.08.12-2.38-1.36-5.14-3.3-.1-.07-.21-.15-.3-.21l.16.05c-3.2.15-5.73.15-5.74.02,0-.14,2.51-.37,5.71-.54h.09s.07.05.07.05c.1.07.2.14.3.21,2.75,1.94,4.92,3.61,4.84,3.73Z" style="fill: #263238;"/>
          <path d="m313.64,384.59c-.14,0-.27-.55-.29-1.25-.02-.69.08-1.26.23-1.26.14,0,.27.55.29,1.25.02.69-.08,1.26-.23,1.26Z" style="fill: #455a64;"/>
        </g>
        <g>
          <polygon points="319.31 380.22 323.73 384.01 323.71 381.31 319.03 377.81 319.31 380.22" style="fill: #263238;"/>
          <polygon points="323.67 381.48 330.05 381.27 324.91 377.54 319.03 377.81 323.67 381.48" style="fill: #455a64;"/>
          <polygon points="323.67 381.48 323.73 384.01 329.96 383.61 330.05 381.27 323.67 381.48" style="fill: #263238;"/>
          <path d="m330.05,381.27c-.08.12-2.38-1.36-5.14-3.3-.1-.07-.21-.15-.3-.21l.16.05c-3.2.15-5.73.15-5.74.02,0-.14,2.51-.37,5.71-.54h.09s.07.05.07.05c.1.07.2.14.3.21,2.75,1.94,4.92,3.61,4.84,3.73Z" style="fill: #263238;"/>
          <path d="m323.71,384.01c-.14,0-.27-.55-.29-1.25-.02-.69.08-1.26.23-1.26.14,0,.27.55.29,1.25.02.69-.08,1.26-.23,1.26Z" style="fill: #455a64;"/>
        </g>
      </g>
      <g>
        <g>
          <polygon points="263.72 389.31 268.15 393.1 268.13 390.4 263.45 386.9 263.72 389.31" style="fill: #263238;"/>
          <polygon points="268.08 390.57 274.46 390.36 269.33 386.63 263.45 386.9 268.08 390.57" style="fill: #455a64;"/>
          <polygon points="268.08 390.57 268.15 393.1 274.38 392.7 274.46 390.36 268.08 390.57" style="fill: #263238;"/>
          <path d="m274.46,390.36c-.08.12-2.38-1.36-5.14-3.3-.1-.07-.21-.15-.3-.21l.16.05c-3.2.15-5.73.15-5.74.02,0-.14,2.51-.37,5.71-.54h.09s.07.05.07.05c.1.07.2.14.3.21,2.75,1.94,4.92,3.61,4.83,3.73Z" style="fill: #263238;"/>
          <path d="m268.13,393.1c-.14,0-.27-.55-.29-1.25-.02-.69.08-1.26.23-1.26.14,0,.27.55.29,1.25.02.69-.08,1.26-.23,1.26Z" style="fill: #455a64;"/>
        </g>
        <g>
          <polygon points="274.4 389.11 278.82 392.9 278.8 390.2 274.12 386.7 274.4 389.11" style="fill: #263238;"/>
          <polygon points="278.76 390.37 285.13 390.16 280 386.43 274.12 386.7 278.76 390.37" style="fill: #455a64;"/>
          <polygon points="278.76 390.37 278.82 392.9 285.05 392.5 285.13 390.16 278.76 390.37" style="fill: #263238;"/>
          <path d="m285.13,390.16c-.08.12-2.38-1.36-5.14-3.3-.1-.07-.21-.15-.3-.21l.16.05c-3.2.15-5.73.15-5.74.02,0-.14,2.51-.37,5.71-.54h.09s.07.05.07.05c.1.07.2.14.3.21,2.75,1.94,4.92,3.61,4.84,3.73Z" style="fill: #263238;"/>
          <path d="m278.8,392.9c-.14,0-.27-.55-.29-1.25-.02-.69.08-1.26.23-1.26.14,0,.27.55.29,1.25.02.69-.08,1.26-.23,1.26Z" style="fill: #455a64;"/>
        </g>
        <g>
          <polygon points="284.62 388.98 289.04 392.77 289.02 390.07 284.34 386.57 284.62 388.98" style="fill: #263238;"/>
          <polygon points="288.98 390.24 295.35 390.02 290.22 386.3 284.34 386.57 288.98 390.24" style="fill: #455a64;"/>
          <polygon points="288.98 390.24 289.04 392.77 295.27 392.36 295.35 390.02 288.98 390.24" style="fill: #263238;"/>
          <path d="m295.35,390.02c-.08.12-2.38-1.36-5.14-3.3-.1-.07-.21-.15-.3-.21l.16.05c-3.2.15-5.73.15-5.74.02,0-.14,2.51-.37,5.71-.54h.09s.07.05.07.05c.1.07.2.14.3.21,2.75,1.94,4.92,3.61,4.83,3.73Z" style="fill: #263238;"/>
          <path d="m289.02,392.77c-.14,0-.27-.55-.29-1.25-.02-.69.08-1.26.23-1.26.14,0,.27.55.29,1.25.02.69-.08,1.26-.23,1.26Z" style="fill: #455a64;"/>
        </g>
        <g>
          <polygon points="295.26 388.67 299.68 392.46 299.66 389.76 294.98 386.26 295.26 388.67" style="fill: #263238;"/>
          <polygon points="299.62 389.93 305.99 389.72 300.86 385.99 294.98 386.26 299.62 389.93" style="fill: #455a64;"/>
          <polygon points="299.62 389.93 299.68 392.46 305.91 392.06 305.99 389.72 299.62 389.93" style="fill: #263238;"/>
          <path d="m305.99,389.72c-.08.12-2.38-1.36-5.14-3.3-.1-.07-.21-.15-.3-.21l.16.05c-3.2.15-5.73.15-5.74.02,0-.14,2.51-.37,5.71-.54h.09s.07.05.07.05c.1.07.2.14.3.21,2.75,1.94,4.92,3.61,4.84,3.73Z" style="fill: #263238;"/>
          <path d="m299.66,392.46c-.14,0-.27-.55-.29-1.25-.02-.69.08-1.26.23-1.26.14,0,.27.55.29,1.25.02.69-.08,1.26-.23,1.26Z" style="fill: #455a64;"/>
        </g>
        <g>
          <polygon points="306.05 388.4 310.47 392.2 310.45 389.49 305.77 386 306.05 388.4" style="fill: #263238;"/>
          <polygon points="310.41 389.67 316.79 389.45 311.65 385.73 305.77 386 310.41 389.67" style="fill: #455a64;"/>
          <polygon points="310.41 389.67 310.47 392.2 316.7 391.79 316.79 389.45 310.41 389.67" style="fill: #263238;"/>
          <path d="m316.79,389.45c-.08.12-2.38-1.36-5.14-3.3-.1-.07-.21-.15-.3-.21l.16.05c-3.2.15-5.73.15-5.74.02,0-.14,2.51-.37,5.71-.54h.09s.07.05.07.05c.1.07.2.14.3.21,2.75,1.94,4.92,3.61,4.84,3.73Z" style="fill: #263238;"/>
          <path d="m310.45,392.2c-.14,0-.27-.55-.29-1.25-.02-.69.08-1.26.23-1.26.14,0,.27.55.29,1.25.02.69-.08,1.26-.23,1.26Z" style="fill: #455a64;"/>
        </g>
        <g>
          <polygon points="316.35 387.92 320.78 391.71 320.76 389.01 316.08 385.51 316.35 387.92" style="fill: #263238;"/>
          <polygon points="320.71 389.18 327.09 388.97 321.96 385.24 316.08 385.51 320.71 389.18" style="fill: #455a64;"/>
          <polygon points="320.71 389.18 320.78 391.71 327.01 391.31 327.09 388.97 320.71 389.18" style="fill: #263238;"/>
          <path d="m327.09,388.97c-.08.12-2.38-1.36-5.14-3.3-.1-.07-.21-.15-.3-.21l.16.05c-3.2.15-5.73.15-5.74.02s2.51-.37,5.71-.54h.09s.07.05.07.05c.1.07.2.14.3.21,2.75,1.94,4.92,3.61,4.84,3.73Z" style="fill: #263238;"/>
          <path d="m320.76,391.71c-.14,0-.27-.55-.29-1.25-.02-.69.08-1.26.23-1.26.14,0,.27.55.29,1.25.02.69-.08,1.26-.23,1.26Z" style="fill: #455a64;"/>
        </g>
        <g>
          <polygon points="326.43 387.34 330.85 391.13 330.83 388.43 326.15 384.93 326.43 387.34" style="fill: #263238;"/>
          <polygon points="330.79 388.6 337.17 388.39 332.03 384.66 326.15 384.93 330.79 388.6" style="fill: #455a64;"/>
          <polygon points="330.79 388.6 330.85 391.13 337.08 390.73 337.17 388.39 330.79 388.6" style="fill: #263238;"/>
          <path d="m337.17,388.39c-.08.12-2.38-1.36-5.14-3.3-.1-.07-.21-.15-.3-.21l.16.05c-3.2.15-5.73.15-5.74.02,0-.14,2.51-.37,5.71-.54h.09s.07.05.07.05c.1.07.2.14.3.21,2.75,1.94,4.92,3.61,4.84,3.73Z" style="fill: #263238;"/>
          <path d="m330.83,391.13c-.14,0-.27-.55-.29-1.25-.02-.69.08-1.26.23-1.26.14,0,.27.55.29,1.25.02.69-.08,1.26-.23,1.26Z" style="fill: #455a64;"/>
        </g>
      </g>
      <g>
        <polygon points="371.44 383.24 282.14 388.1 270.28 399.32 247.42 379.28 247.42 385.09 271.1 407.78 284.17 395.07 372.8 389.79 371.44 383.24" style="fill: #263238;"/>
        <polygon points="271.1 407.78 351.79 403.06 372.8 389.79 282.04 393.35 271.1 407.78" style="fill: #263238;"/>
        <path d="m372.8,389.79s-.09.02-.27.04c-.21.02-.48.04-.81.07-.75.06-1.79.13-3.11.23-2.74.18-6.64.44-11.44.77-9.7.6-23.03,1.42-37.76,2.33-13.55.78-25.92,1.5-35.23,2.04l.12-.05c-4.03,3.87-7.31,7.02-9.62,9.23-1.12,1.06-2.01,1.9-2.64,2.5-.29.26-.52.47-.7.64-.16.14-.24.21-.25.2,0,0,.06-.09.21-.25.17-.18.39-.4.66-.68.62-.62,1.48-1.48,2.57-2.57,2.27-2.24,5.51-5.43,9.49-9.35l.05-.05h.07c9.3-.58,21.67-1.34,35.22-2.17,14.73-.85,28.07-1.62,37.77-2.18,4.81-.25,8.71-.46,11.45-.6,1.32-.06,2.36-.1,3.12-.14.33,0,.6-.02.81-.02.18,0,.28,0,.28.01Z" style="fill: #455a64;"/>
        <path d="m284.17,395.07c-.14.04-.7-1.49-1.27-3.41-.56-1.93-.9-3.52-.77-3.56.14-.04.7,1.49,1.27,3.41.56,1.92.9,3.52.77,3.56Z" style="fill: #455a64;"/>
      </g>
    </g>
  </g>
  <g id="Calculator_1" data-name="Calculator 1">
    <g>
      <path d="m382.73,245.92l-80.15-15.34c-2.45-.47-4.06-2.84-3.59-5.29l25.79-134.75c.67-3.48,4.03-5.76,7.51-5.1l76.42,14.63c3.48.67,5.76,4.03,5.1,7.51l-25.79,134.75c-.47,2.45-2.84,4.06-5.29,3.59Z" style="fill: #455a64;"/>
      <g style="opacity: .4;">
        <path d="m382.67,245.9l-80.15-15.34c-2.45-.47-4.06-2.84-3.59-5.29l25.79-134.75c.67-3.48,4.03-5.76,7.51-5.1l76.42,14.63c3.48.67,5.76,4.03,5.1,7.51l-25.79,134.75c-.47,2.45-2.84,4.06-5.29,3.59Z"/>
      </g>
      <g>
        <path d="m375.75,244.55l-80.15-15.34c-2.45-.47-4.06-2.84-3.59-5.29l25.79-134.75c.67-3.48,4.03-5.76,7.51-5.1l76.42,14.63c3.48.67,5.76,4.03,5.1,7.51l-25.79,134.75c-.47,2.45-2.84,4.06-5.29,3.59Z" style="fill: #455a64;"/>
        <rect x="308.06" y="200.75" width="30.57" height="13.51" rx="2.42" ry="2.42" transform="translate(44.77 -57.09) rotate(10.84)" style="fill: #455a64;"/>
        <g style="opacity: .2;">
          <rect x="308.06" y="200.75" width="30.57" height="13.51" rx="2.42" ry="2.42" transform="translate(44.77 -57.09) rotate(10.84)"/>
        </g>
        <g>
          <rect x="343.22" y="82.15" width="30.4" height="77.5" transform="translate(172.29 450.2) rotate(-79.16)" style="fill: #fafafa;"/>
          <path d="m393.62,143.11s.03-.18.09-.53c.07-.35.16-.87.29-1.55.26-1.36.63-3.36,1.11-5.93.97-5.15,2.38-12.61,4.13-21.86l.07.11c-19.16-3.66-46.19-8.82-76.12-14.53h0s.15-.11.15-.11c-2,10.44-3.93,20.53-5.72,29.86l-.1-.15c22.02,4.24,41.03,7.9,54.54,10.5,6.76,1.31,12.14,2.35,15.84,3.07,1.85.36,3.27.64,4.24.83.48.1.85.17,1.1.22.25.05.38.08.38.08,0,0-.12-.02-.36-.06-.25-.05-.61-.11-1.09-.2-.97-.18-2.38-.45-4.22-.79-3.69-.7-9.07-1.72-15.82-2.99-13.54-2.58-32.58-6.2-54.65-10.4l-.12-.02.02-.12c1.78-9.33,3.71-19.42,5.71-29.86l.02-.13.13.02h0c29.92,5.74,56.95,10.93,76.1,14.61l.09.02-.02.09c-1.8,9.27-3.24,16.74-4.24,21.9-.5,2.56-.89,4.55-1.15,5.91-.13.67-.23,1.18-.3,1.53-.07.34-.11.51-.11.51Z" style="fill: #263238;"/>
        </g>
        <g>
          <rect x="318.12" y="142.39" width="13.17" height="13.17" rx="2.08" ry="2.08" transform="translate(33.79 -58.39) rotate(10.84)" style="fill: #455a64;"/>
          <g style="opacity: .2;">
            <rect x="318.12" y="142.39" width="13.17" height="13.17" rx="2.08" ry="2.08" transform="translate(33.79 -58.39) rotate(10.84)"/>
          </g>
          <rect x="316.12" y="142" width="13.17" height="13.17" rx="2.08" ry="2.08" transform="translate(33.69 -58.02) rotate(10.84)" style="fill: #263238;"/>
          <path d="m324.15,146.01l-1.03,5.39-1.25-.24.84-4.39-1.08-.21.19-1,2.33.45Z" style="fill: #fff;"/>
        </g>
        <g>
          <rect x="336.16" y="145.84" width="13.17" height="13.17" rx="2.08" ry="2.08" transform="translate(34.77 -61.72) rotate(10.84)" style="fill: #455a64;"/>
          <g style="opacity: .2;">
            <rect x="336.16" y="145.84" width="13.17" height="13.17" rx="2.08" ry="2.08" transform="translate(34.77 -61.72) rotate(10.84)"/>
          </g>
          <rect x="334.17" y="145.46" width="13.17" height="13.17" rx="2.08" ry="2.08" transform="translate(34.66 -61.35) rotate(10.84)" style="fill: #263238;"/>
          <path d="m343.3,154.21l-.19,1.02-4.07-.78.15-.81,2.46-1.57c.56-.36.7-.62.75-.89.08-.42-.16-.73-.73-.84-.46-.09-.89.01-1.22.33l-.8-.76c.53-.53,1.36-.78,2.33-.59,1.2.23,1.88,1,1.7,1.98-.1.52-.34.97-1.23,1.53l-1.46.93,2.32.44Z" style="fill: #fff;"/>
        </g>
        <g>
          <rect x="354.87" y="149.42" width="13.17" height="13.17" rx="2.08" ry="2.08" transform="translate(35.77 -65.17) rotate(10.84)" style="fill: #455a64;"/>
          <g style="opacity: .2;">
            <rect x="354.87" y="149.42" width="13.17" height="13.17" rx="2.08" ry="2.08" transform="translate(35.77 -65.17) rotate(10.84)"/>
          </g>
          <rect x="352.87" y="149.04" width="13.17" height="13.17" rx="2.08" ry="2.08" transform="translate(35.67 -64.8) rotate(10.84)" style="fill: #263238;"/>
          <path d="m362.08,157.15c-.17.91-1.03,1.61-2.57,1.31-.75-.14-1.49-.5-1.95-.97l.67-.86c.35.39.89.67,1.45.78.62.12,1.06-.06,1.14-.5.08-.41-.17-.72-.88-.86l-.57-.11.16-.82,1.35-1.04-2.3-.44.19-1,3.77.72-.15.81-1.48,1.15c.94.34,1.32,1.04,1.17,1.83Z" style="fill: #fff;"/>
        </g>
        <g>
          <rect x="373.57" y="153" width="13.17" height="13.17" rx="2.08" ry="2.08" transform="translate(36.78 -68.62) rotate(10.84)" style="fill: #455a64;"/>
          <g style="opacity: .2;">
            <rect x="373.57" y="153" width="13.17" height="13.17" rx="2.08" ry="2.08" transform="translate(36.78 -68.62) rotate(10.84)"/>
          </g>
          <rect x="371.62" y="152.62" width="13.17" height="13.17" rx="2.08" ry="2.08" transform="translate(36.67 -68.26) rotate(10.84)" style="fill: #263238;"/>
          <g>
            <rect x="377.91" y="156.04" width=".5" height="5.88" transform="translate(150.91 500.51) rotate(-79.16)" style="fill: #fff;"/>
            <path d="m379.58,156.65c-.1.52-.6.86-1.12.76-.52-.1-.86-.6-.76-1.12.1-.52.6-.86,1.12-.76.52.1.86.6.76,1.12Z" style="fill: #fff;"/>
            <path d="m378.62,161.68c-.1.52-.6.86-1.12.76-.52-.1-.86-.6-.76-1.12.1-.52.6-.86,1.12-.76.52.1.86.6.76,1.12Z" style="fill: #fff;"/>
          </g>
        </g>
        <g>
          <g style="opacity: .2;">
            <path d="m324.96,175.37l-10.24-1.96c-.74-.14-1.23-.86-1.09-1.6l1.96-10.24c.14-.74.86-1.23,1.6-1.09l10.24,1.96c.8.2,1.27.9,1.09,1.6l-1.96,10.24c-.14.74-.86,1.23-1.6,1.09Z"/>
          </g>
          <rect x="312.5" y="160.96" width="13.17" height="13.17" rx="2.08" ry="2.08" transform="translate(37.19 -57) rotate(10.84)" style="fill: #263238;"/>
          <path d="m321.28,169.52l-.88-.17-.22,1.13-1.22-.23.22-1.13-2.9-.56.16-.84,3.2-2.93,1.31.25-2.98,2.79,1.45.28.19-1.01,1.18.23-.19,1.01.88.17-.19,1.02Z" style="fill: #fff;"/>
        </g>
        <g>
          <rect x="332.54" y="164.79" width="13.17" height="13.17" rx="2.08" ry="2.08" transform="translate(38.27 -60.7) rotate(10.84)" style="fill: #455a64;"/>
          <g style="opacity: .2;">
            <rect x="332.54" y="164.79" width="13.17" height="13.17" rx="2.08" ry="2.08" transform="translate(38.27 -60.7) rotate(10.84)"/>
          </g>
          <rect x="330.54" y="164.41" width="13.17" height="13.17" rx="2.08" ry="2.08" transform="translate(38.16 -60.33) rotate(10.84)" style="fill: #263238;"/>
          <path d="m339.21,172.37c-.18.95-1.04,1.65-2.58,1.36-.75-.14-1.49-.5-1.95-.97l.68-.86c.35.39.88.67,1.44.78.62.12,1.06-.07,1.14-.51.08-.42-.14-.75-1.12-.94l-1.38-.26.86-2.98,3.29.63-.19,1-2.25-.43-.28,1.01.44.08c1.59.31,2.09,1.14,1.91,2.1Z" style="fill: #fff;"/>
        </g>
        <g>
          <rect x="351.24" y="168.37" width="13.17" height="13.17" rx="2.08" ry="2.08" transform="translate(39.27 -64.15) rotate(10.84)" style="fill: #455a64;"/>
          <g style="opacity: .2;">
            <rect x="351.24" y="168.37" width="13.17" height="13.17" rx="2.08" ry="2.08" transform="translate(39.27 -64.15) rotate(10.84)"/>
          </g>
          <rect x="349.24" y="167.99" width="13.17" height="13.17" rx="2.08" ry="2.08" transform="translate(39.16 -63.78) rotate(10.84)" style="fill: #263238;"/>
          <path d="m358.29,176.01c-.21,1.1-1.24,1.62-2.38,1.4-1.49-.28-2.23-1.39-1.9-3.13.36-1.86,1.68-2.69,3.31-2.38.57.11,1.1.35,1.43.66l-.64.83c-.26-.26-.6-.39-.96-.46-.9-.17-1.58.25-1.82,1.27.38-.26.86-.33,1.42-.22,1.04.2,1.73,1.02,1.54,2.03Zm-1.22-.17c.09-.49-.21-.88-.76-.98-.55-.1-1,.16-1.09.63-.09.46.19.87.79.98.53.1.96-.14,1.05-.63Z" style="fill: #fff;"/>
        </g>
        <g>
          <rect x="369.94" y="171.95" width="13.17" height="13.17" rx="2.08" ry="2.08" transform="translate(40.28 -67.6) rotate(10.84)" style="fill: #455a64;"/>
          <g style="opacity: .2;">
            <rect x="369.94" y="171.95" width="13.17" height="13.17" rx="2.08" ry="2.08" transform="translate(40.28 -67.6) rotate(10.84)"/>
          </g>
          <rect x="367.94" y="171.57" width="13.17" height="13.17" rx="2.08" ry="2.08" transform="translate(40.17 -67.23) rotate(10.84)" style="fill: #263238;"/>
          <g>
            <rect x="371.59" y="177.9" width="5.88" height=".5" transform="translate(-36.31 234.89) rotate(-33.3)" style="fill: #fff;"/>
            <rect x="374.28" y="175.21" width=".5" height="5.88" transform="translate(-35.41 241.11) rotate(-34.17)" style="fill: #fff;"/>
          </g>
        </g>
        <g>
          <rect x="310.9" y="180.14" width="13.17" height="13.17" rx="2.08" ry="2.08" transform="translate(40.76 -56.35) rotate(10.84)" style="fill: #455a64;"/>
          <g style="opacity: .2;">
            <rect x="310.9" y="180.14" width="13.17" height="13.17" rx="2.08" ry="2.08" transform="translate(40.76 -56.35) rotate(10.84)"/>
          </g>
          <rect x="308.9" y="179.75" width="13.17" height="13.17" rx="2.08" ry="2.08" transform="translate(40.65 -55.98) rotate(10.84)" style="fill: #263238;"/>
          <path d="m317.78,183.92l-.15.81-2.88,4.2-1.36-.26,2.77-4.01-1.79-.34-.17.88-1.11-.21.36-1.89,4.32.83Z" style="fill: #fff;"/>
        </g>
        <g>
          <rect x="328.94" y="183.59" width="13.17" height="13.17" rx="2.08" ry="2.08" transform="translate(41.74 -59.69) rotate(10.84)" style="fill: #455a64;"/>
          <g style="opacity: .2;">
            <rect x="328.94" y="183.59" width="13.17" height="13.17" rx="2.08" ry="2.08" transform="translate(41.74 -59.69) rotate(10.84)"/>
          </g>
          <rect x="326.94" y="183.21" width="13.17" height="13.17" rx="2.08" ry="2.08" transform="translate(41.63 -59.32) rotate(10.84)" style="fill: #263238;"/>
          <path d="m336.02,191.38c-.19,1.02-1.23,1.48-2.6,1.22-1.36-.26-2.14-1.07-1.95-2.09.11-.58.49-.95,1.06-1.11-.35-.32-.5-.74-.41-1.23.18-.95,1.14-1.38,2.37-1.14,1.24.24,1.97.99,1.79,1.94-.09.49-.4.82-.84.99.47.36.69.85.58,1.43Zm-1.26-.28c.09-.48-.25-.85-.87-.97-.62-.12-1.06.1-1.15.58-.09.48.24.85.85.97.62.12,1.07-.11,1.17-.58Zm-1.41-2.64c-.08.41.2.72.71.82.52.1.9-.09.97-.5.08-.42-.21-.74-.72-.84-.5-.1-.88.09-.96.52Z" style="fill: #fff;"/>
        </g>
        <g>
          <rect x="347.64" y="187.17" width="13.17" height="13.17" rx="2.08" ry="2.08" transform="translate(42.74 -63.14) rotate(10.84)" style="fill: #455a64;"/>
          <g style="opacity: .2;">
            <rect x="347.64" y="187.17" width="13.17" height="13.17" rx="2.08" ry="2.08" transform="translate(42.74 -63.14) rotate(10.84)"/>
          </g>
          <rect x="345.64" y="186.79" width="13.17" height="13.17" rx="2.08" ry="2.08" transform="translate(42.63 -62.77) rotate(10.84)" style="fill: #263238;"/>
          <path d="m354.76,193.68c-.36,1.86-1.67,2.69-3.31,2.38-.57-.11-1.09-.34-1.42-.66l.64-.83c.25.26.59.39.96.46.89.17,1.58-.25,1.82-1.28-.38.26-.87.34-1.43.23-1.04-.2-1.73-1.02-1.54-2.03.21-1.1,1.24-1.62,2.38-1.4,1.49.29,2.23,1.39,1.9,3.13Zm-1.21-1.21c.09-.46-.19-.87-.79-.98-.53-.1-.96.14-1.05.63-.09.49.21.88.76.98.55.1.99-.16,1.08-.63Z" style="fill: #fff;"/>
        </g>
        <g>
          <rect x="366.34" y="190.75" width="13.17" height="13.17" rx="2.08" ry="2.08" transform="translate(43.75 -66.59) rotate(10.84)" style="fill: #455a64;"/>
          <g style="opacity: .2;">
            <rect x="366.34" y="190.75" width="13.17" height="13.17" rx="2.08" ry="2.08" transform="translate(43.75 -66.59) rotate(10.84)"/>
          </g>
          <rect x="364.34" y="190.37" width="13.17" height="13.17" rx="2.08" ry="2.08" transform="translate(43.64 -66.22) rotate(10.84)" style="fill: #263238;"/>
          <rect x="370.68" y="194.01" width=".5" height="5.88" transform="translate(107.78 524.26) rotate(-79.17)" style="fill: #fff;"/>
        </g>
        <g>
          <rect x="344.01" y="206.13" width="13.17" height="13.17" rx="2.08" ry="2.08" transform="translate(46.24 -62.12) rotate(10.84)" style="fill: #455a64;"/>
          <g style="opacity: .2;">
            <rect x="344.01" y="206.13" width="13.17" height="13.17" rx="2.08" ry="2.08" transform="translate(46.24 -62.12) rotate(10.84)"/>
          </g>
          <rect x="342.01" y="205.75" width="13.17" height="13.17" rx="2.08" ry="2.08" transform="translate(46.13 -61.75) rotate(10.84)" style="fill: #263238;"/>
        </g>
        <g>
          <rect x="362.71" y="209.71" width="13.17" height="13.17" rx="2.08" ry="2.08" transform="translate(47.25 -65.57) rotate(10.84)" style="fill: #ff725e;"/>
          <g style="opacity: .4;">
            <rect x="362.71" y="209.71" width="13.17" height="13.17" rx="2.08" ry="2.08" transform="translate(47.25 -65.57) rotate(10.84)"/>
          </g>
          <rect x="360.71" y="209.33" width="13.17" height="13.17" rx="2.08" ry="2.08" transform="translate(47.14 -65.2) rotate(10.84)" style="fill: #ff725e;"/>
          <g>
            <rect x="367.19" y="212.26" width=".5" height="5.88" transform="translate(87.03 535.66) rotate(-79.17)" style="fill: #fff;"/>
            <rect x="366.77" y="214.46" width=".5" height="5.88" transform="translate(84.53 537.03) rotate(-79.17)" style="fill: #fff;"/>
          </g>
        </g>
        <rect x="304.42" y="200.17" width="31.8" height="13.51" rx="2.5" ry="2.5" transform="translate(44.61 -56.53) rotate(10.84)" style="fill: #263238;"/>
        <path d="m319.18,206.44c.34-1.78,1.52-2.6,2.84-2.35,1.33.26,2.12,1.45,1.78,3.23-.34,1.78-1.51,2.6-2.84,2.35-1.32-.25-2.12-1.45-1.78-3.23Zm3.37.64c.23-1.22-.1-1.82-.72-1.94-.62-.12-1.14.31-1.38,1.53-.23,1.22.1,1.82.72,1.93.62.12,1.15-.31,1.39-1.53Z" style="fill: #fff;"/>
        <g>
          <rect x="345.66" y="212.08" width="5.88" height=".5" transform="translate(70.03 510.68) rotate(-78.31)" style="fill: #fff;"/>
          <rect x="348.35" y="209.39" width=".5" height="5.88" transform="translate(74.53 514.81) rotate(-79.17)" style="fill: #fff;"/>
        </g>
        <g>
          <path d="m350.98,119.63l-1.54,8.06-.38-.07,1.47-7.7-2.03-.39.07-.36,2.41.46Z" style="fill: #263238;"/>
          <path d="m356.92,128.75l-.07.36-5.46-1.04.05-.28,4.12-2.82c1.18-.8,1.5-1.35,1.62-2,.21-1.07-.41-1.91-1.82-2.17-1.07-.21-1.91-.04-2.6.5l-.22-.3c.73-.58,1.71-.78,2.9-.56,1.54.3,2.37,1.28,2.12,2.58-.15.76-.51,1.38-1.78,2.24l-3.75,2.57,4.87.93Z" style="fill: #263238;"/>
          <path d="m363.47,128.06c-.26,1.34-1.38,2.1-3.15,1.76-1.21-.23-2.19-.9-2.58-1.65l.26-.24c.36.68,1.23,1.31,2.38,1.53,1.54.3,2.49-.31,2.72-1.47.22-1.17-.41-2.07-2.12-2.4l-.45-.09.05-.28,3.14-2.79-4.45-.85.07-.36,4.95.95-.05.28-3.15,2.8c1.89.36,2.64,1.46,2.39,2.81Z" style="fill: #263238;"/>
          <path d="m371.41,129.48l-1.75-.34-.45,2.33-.38-.07.45-2.33-4.63-.89.05-.28,5.5-4.61.45.09-5.43,4.55,4.12.79.39-2.05.38.07-.39,2.05,1.75.33-.07.35Z" style="fill: #263238;"/>
          <path d="m372.92,131.83c-.03.15-.08.23-.15.41l-.71,1.46-.3-.06.66-1.52c-.19-.07-.3-.25-.26-.44.04-.21.23-.35.45-.31.23.04.34.27.31.45Z" style="fill: #263238;"/>
          <path d="m381.08,131.33l-1.75-.33-.45,2.33-.38-.07.45-2.33-4.63-.89.05-.28,5.5-4.61.45.09-5.43,4.55,4.12.79.39-2.05.38.07-.39,2.05,1.75.33-.07.35Z" style="fill: #263238;"/>
          <path d="m387.06,132.53c-.25,1.31-1.36,2.15-3.19,1.8-1.19-.23-2.18-.89-2.57-1.65l.27-.23c.35.68,1.23,1.31,2.37,1.53,1.58.3,2.51-.38,2.73-1.52.24-1.24-.36-2.12-2.66-2.56l-1.57-.3,1.15-3.72,4.16.8-.07.36-3.83-.73-.94,3.02,1.24.24c2.46.47,3.18,1.55,2.9,2.98Z" style="fill: #263238;"/>
        </g>
      </g>
    </g>
  </g>
  <g id="Window">
    <g>
      <rect x="1.3" y="18.13" width="222.98" height="148.7" style="fill: #fafafa;"/>
      <rect x="42.68" y="71.33" width="36.68" height="14.72" style="fill: #ff725e;"/>
      <rect x="152.73" y="71.33" width="36.68" height="14.72" style="fill: #ff725e;"/>
      <rect x="152.73" y="100.56" width="36.68" height="14.72" style="fill: #ff725e;"/>
      <rect x="152.73" y="115.18" width="36.68" height="14.72" style="fill: #ff725e;"/>
      <rect x="79.36" y="100.82" width="36.68" height="14.72" style="fill: #455a64;"/>
      <rect x="115.99" y="115.72" width="36.68" height="14.72" style="fill: #455a64;"/>
      <rect x="79.36" y="144.91" width="36.68" height="15.31" style="fill: #ebebeb;"/>
      <rect x="152.73" y="145.12" width="36.68" height="14.72" style="fill: #ff725e;"/>
      <rect x="19.43" y="56.95" width="198.07" height="14.38" style="fill: #e0e0e0;"/>
      <g>
        <rect x="7.95" y="56.95" width="34.73" height="103.58" style="fill: #e0e0e0;"/>
        <path d="m43.18,161.03H7.45V56.45h35.73v104.58Zm-34.73-1h33.73V57.45H8.45v102.58Z" style="fill: #e0e0e0;"/>
      </g>
      <rect x="1.3" y="18.13" width="222.98" height="16.87" style="fill: #ff725e;"/>
      <rect x="8.35" y="41.15" width="34.33" height="9.65" style="fill: #ebebeb;"/>
      <rect x="46.7" y="41.15" width="33.11" height="9.65" style="fill: #ebebeb;"/>
      <rect x="83.01" y="41.15" width="33.11" height="9.65" style="fill: #ebebeb;"/>
      <rect x="119.32" y="41.15" width="33.11" height="9.65" style="fill: #ebebeb;"/>
      <rect x="155.63" y="41.15" width="33.11" height="9.65" style="fill: #ebebeb;"/>
      <rect x="191.94" y="41.15" width="27.21" height="9.65" style="fill: #ebebeb;"/>
      <path d="m7.95,160.22s.35,0,1.02-.01c.68,0,1.68,0,2.99-.01,2.64,0,6.53-.02,11.58-.03,10.11-.02,24.84-.04,43.4-.07,37.09-.03,89.45-.07,150.55-.12l-.25.25c0-31.94,0-66.87-.01-103.26h0s.26.25.26.25c-80.96-.03-154.72-.05-209.55-.07l.19-.19c-.04,31.83-.08,57.63-.1,75.47-.02,8.93-.04,15.87-.05,20.59,0,2.35-.02,4.15-.02,5.37,0,1.21-.02,1.84-.02,1.84,0,0-.01-.6-.02-1.8,0-1.21-.01-3-.02-5.33-.01-4.71-.03-11.63-.05-20.54-.02-17.87-.06-43.71-.1-75.59v-.19s.19,0,.19,0c54.83-.02,128.6-.04,209.55-.07h.26v.26h0c0,36.4-.01,71.33-.01,103.27v.25h-.25c-61.17-.05-113.58-.09-150.71-.12-18.53-.03-33.25-.05-43.35-.07-5.03-.01-8.91-.02-11.53-.03-1.3,0-2.29-.01-2.96-.01-.66,0-1-.02-1-.02Z" style="fill: #263238;"/>
      <path d="m217.9,71.33c0,.14-46.91.26-104.77.26s-104.78-.12-104.78-.26,46.9-.26,104.78-.26,104.77.12,104.77.26Z" style="fill: #263238;"/>
      <path d="m217.9,86.05c0,.14-46.91.26-104.77.26s-104.78-.12-104.78-.26,46.9-.26,104.78-.26,104.77.12,104.77.26Z" style="fill: #263238;"/>
      <path d="m217.9,100.76c0,.14-46.91.26-104.77.26s-104.78-.12-104.78-.26,46.9-.26,104.78-.26,104.77.12,104.77.26Z" style="fill: #263238;"/>
      <path d="m217.9,115.48c0,.14-46.91.26-104.77.26s-104.78-.12-104.78-.26,46.9-.26,104.78-.26,104.77.12,104.77.26Z" style="fill: #263238;"/>
      <path d="m217.9,130.2c0,.14-46.91.26-104.77.26s-104.78-.12-104.78-.26,46.9-.26,104.78-.26,104.77.12,104.77.26Z" style="fill: #263238;"/>
      <path d="m217.9,144.91c0,.14-46.91.26-104.77.26s-104.78-.12-104.78-.26,46.9-.26,104.78-.26,104.77.12,104.77.26Z" style="fill: #263238;"/>
      <path d="m42.68,160.53c-.14,0-.26-23.06-.26-51.5s.12-51.5.26-51.5.26,23.05.26,51.5-.12,51.5-.26,51.5Z" style="fill: #263238;"/>
      <path d="m79.36,160.22c-.14,0-.26-22.99-.26-51.34s.12-51.35.26-51.35.26,22.99.26,51.35-.12,51.34-.26,51.34Z" style="fill: #263238;"/>
      <path d="m116.05,160.53c-.14,0-.26-23.06-.26-51.5s.12-51.5.26-51.5.26,23.05.26,51.5-.12,51.5-.26,51.5Z" style="fill: #263238;"/>
      <path d="m152.73,160.53c-.14,0-.26-23.06-.26-51.5s.12-51.5.26-51.5.26,23.05.26,51.5-.12,51.5-.26,51.5Z" style="fill: #263238;"/>
      <path d="m189.42,160.53c-.14,0-.26-23.06-.26-51.5s.12-51.5.26-51.5.26,23.05.26,51.5-.12,51.5-.26,51.5Z" style="fill: #263238;"/>
      <path d="m14.33,26.57c0,1.21-.95,2.19-2.13,2.19s-2.13-.98-2.13-2.19.95-2.19,2.13-2.19,2.13.98,2.13,2.19Z" style="fill: #fff;"/>
      <path d="m21.56,26.57c0,1.21-.95,2.19-2.13,2.19s-2.13-.98-2.13-2.19.95-2.19,2.13-2.19,2.13.98,2.13,2.19Z" style="fill: #fff;"/>
      <path d="m28.79,26.57c0,1.21-.95,2.19-2.13,2.19s-2.13-.98-2.13-2.19.95-2.19,2.13-2.19,2.13.98,2.13,2.19Z" style="fill: #fff;"/>
      <path d="m224.28,166.83c0-1.7-.08-58.11-.21-148.7l.21.21c-61.39.01-138.92.03-222.96.05h-.02l.26-.26c0,52.96-.02,103.32-.02,148.7l-.24-.24c65.65.05,121.36.09,160.67.12,19.67.03,35.23.05,45.89.06,5.33.01,9.42.02,12.2.03,1.38,0,2.43.01,3.15.01.71,0,1.07.01,1.07.01,0,0-.35,0-1.05.01-.71,0-1.75,0-3.12.01-2.76,0-6.84.02-12.15.03-10.64.01-26.19.04-45.83.06-39.35.03-95.12.07-160.83.12h-.24s0-.24,0-.24c0-45.38-.01-95.74-.02-148.7v-.26h.28c84.04.02,161.57.04,222.96.05h.21s0,.21,0,.21c-.13,90.59-.21,147-.21,148.7Z" style="fill: #263238;"/>
    </g>
  </g>
  <g id="Character">
    <g>
      <g>
        <path d="m206.48,194l-11.56,14.37-48.23,13.43,7.2,77.9c2.22,30.53,5.35,38.02,7.5,58.32v16.55h136.98l19.12-158.14-47.24-10.86-10.16-11.56h-53.62Z" style="fill: #ff725e;"/>
        <polygon points="204.43 221.82 210.33 299.83 216.64 339.43 262.95 210.19 225.6 254.47 204.43 221.82" style="fill: #fff;"/>
        <path d="m215.97,345s.05-.13.18-.38c.14-.27.33-.63.58-1.09.53-.97,1.3-2.37,2.27-4.15,2.01-3.62,4.89-8.82,8.44-15.23,7.18-12.85,17.09-30.57,28.02-50.15,5.42-9.66,10.59-18.86,15.28-27.21l.05.3c-2.3-1.94-4.52-3.81-6.65-5.62l-.24-.21.27-.16c3.35-1.98,6.52-3.85,9.47-5.59l-.1.2c-1.04-9.23-1.88-16.76-2.47-22.01-.28-2.59-.5-4.62-.65-6.03-.07-.67-.12-1.2-.15-1.58-.03-.36-.03-.54-.03-.54,0,0,.04.18.09.53.05.38.12.9.21,1.57.18,1.41.43,3.43.76,6.02.63,5.25,1.54,12.77,2.65,21.99l.02.13-.11.07c-2.94,1.75-6.1,3.64-9.45,5.63l.03-.37c2.14,1.8,4.36,3.66,6.67,5.6l.15.13-.1.17c-4.68,8.35-9.83,17.56-15.24,27.23-10.99,19.54-20.94,37.24-28.16,50.07-3.62,6.38-6.55,11.55-8.59,15.15-1.01,1.76-1.8,3.14-2.36,4.11-.26.45-.47.8-.62,1.06-.14.24-.22.36-.23.35Z" style="fill: #263238;"/>
        <path d="m215.97,345s-.05-.12-.13-.37c-.08-.27-.2-.63-.34-1.09-.3-.99-.72-2.4-1.26-4.2-1.08-3.68-2.62-8.97-4.53-15.49-1.88-6.55-4.21-14.31-6.6-23.01-2.23-8.74-4.36-18.41-6.61-28.56-3.05-13.92-5.82-26.95-8.11-37.98l-.04-.19.18-.06c2.2-.77,4.3-1.5,6.31-2.21l-.03.38c-2.77-1.47-5.32-2.82-7.68-4.07l-.14-.08.06-.15c2.41-6.06,4.36-10.95,5.71-14.35.67-1.66,1.2-2.96,1.57-3.87.18-.42.31-.75.42-1,.1-.22.15-.34.16-.33,0,0-.03.12-.11.35-.09.25-.22.59-.37,1.02-.35.92-.84,2.23-1.48,3.91-1.32,3.42-3.21,8.33-5.56,14.41l-.08-.23c2.37,1.24,4.93,2.57,7.71,4.02l.42.22-.45.16c-2.01.71-4.1,1.46-6.3,2.24l.14-.26c2.34,11.02,5.13,24.05,8.18,37.96,2.25,10.14,4.37,19.82,6.57,28.55,2.36,8.67,4.66,16.47,6.49,23.03,1.84,6.54,3.33,11.84,4.37,15.53.5,1.82.89,3.24,1.16,4.23.12.47.22.83.29,1.1.06.25.09.38.08.38Z" style="fill: #263238;"/>
        <path d="m146.69,221.79s-10.61,5.16-18.08,28.94c-5.43,17.28-27.51,76.77-27.51,76.77l-24.46-7.13s-18,22.42-13.93,30.23c4.08,7.81,33.87,23.97,33.87,23.97h34.89c4.77-3.68,8.26-8.76,9.97-14.54l19.95-67.18-14.7-71.06Z" style="fill: #ff725e;"/>
        <path d="m317.5,216.42s9.26,4.94,15.35,15.77c6.09,10.83,54.72,89.97,58.75,108.73,6.02,28.02-6.01,33.61-6.01,33.61h-16.8l-41.59-.23-5.25-32.55,18.49-3.95-34.27-38-2.27,3.88-6.7-54.25,20.3-33.01Z" style="fill: #ff725e;"/>
        <path d="m151.1,254.47c.14-.01,1.38,13.45,2.77,30.06,1.39,16.61,2.39,30.09,2.25,30.1-.14.01-1.38-13.44-2.77-30.06-1.38-16.61-2.39-30.09-2.25-30.1Z" style="fill: #263238;"/>
        <path d="m315.05,239.41c.14.02-1.77,16.81-4.28,37.5-2.51,20.7-4.65,37.46-4.8,37.44-.14-.02,1.77-16.81,4.28-37.5,2.51-20.69,4.65-37.45,4.8-37.44Z" style="fill: #263238;"/>
        <path d="m327.7,374.57s.16-.21.47-.6c.3-.39.75-.98,1.25-1.78,1-1.59,2.27-4.04,3.22-7.28.48-1.61.9-3.42,1.16-5.38.27-1.96.51-4.09.27-6.28-.25-2.19-1-4.44-2.32-6.44-1.32-1.99-3.11-3.81-5.27-5.16-.15-.09-.31-.19-.45-.26l-.56-.3.6-.18c9.84-2.89,19.03-4.26,25.69-4.79,3.33-.28,6.03-.41,7.89-.47.93-.03,1.66-.04,2.15-.04.49,0,.75,0,.75.02,0,.02-.26.05-.75.08-.54.04-1.25.08-2.14.14-1.86.12-4.55.3-7.87.63-6.63.63-15.77,2.05-25.58,4.93l.05-.48c.16.09.32.18.48.28,2.23,1.39,4.06,3.26,5.43,5.32,1.36,2.08,2.13,4.41,2.37,6.67.23,2.27-.03,4.42-.32,6.39-.28,1.98-.73,3.8-1.23,5.43-1,3.26-2.34,5.71-3.4,7.28-.53.79-1.01,1.36-1.34,1.73-.34.37-.54.54-.55.53Z" style="fill: #263238;"/>
        <path d="m216.09,374.57c-.14,0-.26-6.7-.26-14.96s.12-14.97.26-14.97.26,6.7.26,14.97-.12,14.96-.26,14.96Z" style="fill: #263238;"/>
        <path d="m294.14,308.19s-.02-.25-.03-.71c0-.49-.02-1.15-.04-2-.02-1.76-.05-4.27-.09-7.43l.15.15c-9.34.02-24.42.06-41.44.11.12-.12-.26.26.26-.26h0v1.3s0,1.29,0,1.29c0,.86,0,1.71,0,2.56,0,1.69,0,3.36,0,4.99l-.26-.26c11.76.05,22.08.09,29.5.12,3.68.03,6.65.06,8.74.07,1,.01,1.79.03,2.37.03.25,0,.45.01.62.02.14,0,.22.01.22.02.01.01-.26.02-.78.03-.57,0-1.34.02-2.31.03-2.07.02-5.02.04-8.68.07-7.47.03-17.84.07-29.68.12h-.26s0-.26,0-.26c0-1.64,0-3.3,0-4.99,0-.85,0-1.7,0-2.56v-1.29s0-.65,0-.65v-.63h0v-.02h0c.52-.52.15-.15.26-.26,17.02.04,32.1.08,41.44.11h.16s0,.15,0,.15c-.04,3.2-.07,5.73-.09,7.52-.02.83-.03,1.48-.04,1.96-.01.44-.02.66-.03.65Z" style="fill: #263238;"/>
        <path d="m151.1,250.01c-.14.03-1.5-5.75-3.03-12.91-1.54-7.16-2.67-12.99-2.53-13.02.14-.03,1.5,5.75,3.03,12.91,1.54,7.16,2.67,12.99,2.53,13.02Z" style="fill: #263238;"/>
        <g style="opacity: .3;">
          <polygon points="218.27 340.9 277.42 250.18 268.89 241.93 273.76 235.7 264.3 241.3 270.96 246.91 218.27 340.9"/>
        </g>
        <g style="opacity: .3;">
          <polygon points="72.15 343.94 72.15 348.98 139.29 349.19 139.29 343.94 72.15 343.94"/>
        </g>
      </g>
      <g>
        <path d="m153.97,158.6c3.56.48,7.33-1.2,9.35-4.17-2.41.37-5.01.71-7.18-.4-2.17-1.11-3.4-4.31-1.7-6.05,1.33-1.36,3.52-1.13,5.42-1.27,4.42-.32,8.51-3.46,9.97-7.65,1.61-4.62.14-9.65-.44-14.51-1.68-14.09,5.02-28.86,16.73-36.87l30.41-17.58c11.03,14.11,14.47,33.14,12.18,50.9-2.29,17.76-9.82,34.46-18.88,49.92-2.64,4.5-5.45,8.97-9.17,12.62-3.72,3.66-8.48,6.47-13.67,7.01-1.37-4.27-.5-9.19,2.25-12.72-8.22.52-16.6-2.48-22.61-8.1,2.17-1.67,4.34-3.33,6.52-5-6.87.92-14.1-1.39-19.16-6.13Z" style="fill: #263238;"/>
        <g>
          <g>
            <path d="m271.07,109c-.54-12.71-8.45-23.34-20.68-26.84l-38.12-10.89c-16.54-2.27-28.21,17.83-29.77,34.46-1.73,18.47-3.04,37.98-1.27,51.85,3.56,27.9,24.73,32.09,24.73,32.09,0-.04-.71,25.15-.92,33.26l19.39,40.54,37.57-51.86,9.16-102.27c.02-.47-.06.29-.09-.34Z" style="fill: #af7e69;"/>
            <path d="m189.83,128.74c-.12,1.88,1.36,3.53,3.32,3.7,1.95.17,3.64-1.22,3.77-3.1.12-1.88-1.36-3.53-3.32-3.7-1.96-.17-3.65,1.22-3.77,3.1Z" style="fill: #263238;"/>
            <path d="m186.36,116.72c.43.48,3.19-1.44,7.02-1.31,3.83.07,6.58,2.13,7.01,1.67.21-.2-.21-1.05-1.41-1.98-1.18-.92-3.21-1.85-5.59-1.91-2.39-.06-4.42.76-5.6,1.62-1.21.87-1.63,1.7-1.42,1.91Z" style="fill: #263238;"/>
            <path d="m222.23,128.74c-.12,1.88,1.36,3.53,3.32,3.7,1.95.16,3.64-1.22,3.77-3.1.12-1.88-1.36-3.53-3.32-3.7-1.96-.17-3.65,1.22-3.77,3.1Z" style="fill: #263238;"/>
            <path d="m222.76,117.76c.43.48,3.19-1.43,7.02-1.31,3.83.07,6.58,2.13,7.01,1.67.21-.2-.21-1.05-1.41-1.98-1.18-.93-3.21-1.85-5.59-1.92-2.39-.06-4.42.76-5.6,1.62-1.2.87-1.63,1.7-1.42,1.91Z" style="fill: #263238;"/>
            <path d="m209.92,147.52c.02-.22-2.34-.7-6.19-1.31-.97-.13-1.9-.35-2.04-1.03-.21-.71.23-1.76.74-2.88.99-2.34,2.03-4.79,3.12-7.36,4.34-10.48,7.52-19.12,7.1-19.29-.42-.17-4.29,8.19-8.63,18.67-1.05,2.59-2.05,5.05-3,7.41-.4,1.1-1.08,2.34-.63,3.82.24.74.94,1.29,1.56,1.48.62.21,1.17.24,1.65.28,3.88.33,6.29.42,6.31.2Z" style="fill: #263238;"/>
            <path d="m243.08,180.84s-9.58,18.81-37.29,15.36l.18-6.53s18.26,1.72,37.11-8.83Z" style="fill: #7c5142;"/>
            <path d="m224.35,105.4c.35,1.05,4.19.68,8.66,1.36,4.49.59,8.08,2.02,8.7,1.1.28-.44-.32-1.44-1.76-2.49-1.42-1.05-3.71-2.08-6.4-2.46-2.69-.38-5.17-.03-6.83.59-1.67.61-2.53,1.41-2.38,1.91Z" style="fill: #263238;"/>
            <path d="m187.95,105.04c.65.89,3.31.07,6.49.12,3.18-.06,5.84.76,6.49-.13.28-.43-.11-1.32-1.26-2.18-1.13-.86-3.05-1.59-5.23-1.59-2.18,0-4.1.73-5.23,1.59-1.15.86-1.55,1.74-1.26,2.18Z" style="fill: #263238;"/>
          </g>
          <path d="m224.29,155c-.44-2.3-2.73-4.11-5.06-3.94-1.71.12-3.29,1.23-4.1,2.74-.82,1.51-.9,3.36-.37,4.99l.07.36c1.52,1.78,4.22,2.46,6.37,1.55,2.15-.92,3.53-3.41,3.09-5.7Z" style="fill: #7c5142;"/>
          <path d="m212.05,159.16c.01-.58,3.88-.29,6.89-3.38,3.02-3.09,2.9-7.25,3.45-7.24.25-.03.68.98.59,2.72-.08,1.71-.82,4.16-2.66,6.06-1.84,1.89-4.16,2.58-5.76,2.59-1.63.02-2.55-.49-2.51-.75Z" style="fill: #263238;"/>
        </g>
        <path d="m258.26,64.77c-4.29-6.81-14.42-13.93-22.35-15.31-9.04-1.58-14.49-.03-20.43,5.4,0,0-4.63,4.46-8.96,5.31-4.34.84-7.96.13-13.13,2.77-7.06,3.61-10.16,13.06-13.44,20.29-4.07,8.98-9.87,17.25-12.52,26.75s-1.24,21.17,6.76,26.93c-1.37-7.28-2.52-15.28.48-21.87-.34,2.65-.27,5.3.48,7.88,1.5-4.27,3.08-8.68,6.18-11.98,2.93-3.11,6.97-4.97,9.99-8,4.43-4.45,6.47-11.22,11.85-14.45,5.6-3.36,12.68-1.68,19.21-1.65,10.96.05,21.83-5.18,28.62-13.79l-1.62-.14c2.94-2.01,5.9-4.66,8.88-8.14Z" style="fill: #263238;"/>
        <path d="m299.09,132.69c-2.49-8.17-6.87-15.64-9.61-23.73-2.67-7.88-3.77-16.3-7.31-23.82-4.76-10.12-13.67-23.23-27.54-22.51l-.95.83c-4.72-.54-9.54-.03-13.98,1.67l-.21,10.81-2.66,2.34c1.11,2.15,2.17,4.22,3.19,6.26.89,4.05,1.93,8.08,3.54,11.9,1.58,3.74,3.76,7.29,6.66,10.12,23.9,57.21,2.22,60.83,12.99,93.62l6.77-18.77c5.78-3.32,10.51-8.42,13.39-14.43.4,1.98.8,3.97,1.19,5.95,5.45-5.73,8.82-13.41,9.33-21.31,1.04,1.9,2.07,3.81,3.11,5.71,4.92-6.98,4.57-16.47,2.08-24.64Z" style="fill: #263238;"/>
        <g>
          <g>
            <path d="m258.32,130.61c.37-.93,17.65-6.61,17.35,11.57-.28,17.66-18,13.68-18.02,13.17-.02-.51.67-24.74.67-24.74Z" style="fill: #af7e69;"/>
            <path d="m263.23,148.75c.08-.05.3.22.82.47.5.24,1.37.42,2.3.09,1.88-.65,3.51-3.58,3.65-6.76.08-1.61-.23-3.14-.78-4.42-.51-1.3-1.33-2.22-2.27-2.41-.93-.23-1.61.31-1.83.81-.25.49-.14.84-.24.87-.05.04-.37-.3-.22-1.03.08-.35.29-.76.72-1.09.43-.34,1.06-.5,1.71-.42,1.36.12,2.56,1.4,3.16,2.8.67,1.41,1.06,3.14.97,4.94-.18,3.56-2.07,6.85-4.63,7.54-1.25.3-2.28-.09-2.8-.52-.54-.45-.62-.84-.56-.87Z" style="fill: #7c5142;"/>
          </g>
          <g>
            <path d="m265.15,151.93c1.73-.27,3.56.98,3.93,2.69.38,1.71-.75,3.61-2.44,4.09-1.68.48-3.65-.53-4.24-2.18-.59-1.65.3-3.68,1.91-4.37" style="fill: #fff;"/>
            <path d="m264.31,152.17c.1.11-1.17.58-1.66,2.33-.23.83-.15,1.95.61,2.79.72.84,2.04,1.38,3.26,1.04,1.22-.36,2.05-1.52,2.22-2.61.2-1.11-.33-2.1-.96-2.69-1.34-1.22-2.66-.95-2.64-1.09,0-.04.28-.17.83-.17.55,0,1.38.19,2.18.83.79.6,1.53,1.82,1.33,3.22-.17,1.35-1.14,2.8-2.73,3.28-1.6.44-3.19-.28-4.05-1.33-.92-1.09-.93-2.51-.59-3.44.34-.97.94-1.57,1.41-1.86.47-.3.78-.34.8-.3Z" style="fill: #263238;"/>
          </g>
        </g>
        <path d="m238.24,82.71c.35.14,1.98-5.85,6.9-11.4,4.84-5.63,10.55-8.05,10.36-8.38-.05-.13-1.54.3-3.72,1.49-2.18,1.19-5,3.25-7.52,6.12-2.51,2.88-4.17,5.96-5.05,8.28-.89,2.33-1.11,3.86-.97,3.89Z" style="fill: #455a64;"/>
      </g>
      <g>
        <path d="m79.9,348.98l-13.18-15.49s-9.25,0-13.87-4.39-13.18-8.55-9.71-16.42c0,0-4.16-4.86-.81-10.17l.11-1.39s-10.4-4.39-7.4-9.71,8.79-3.01,8.79-3.01c0,0-11.36-7.68-13.41-9.78-5.47-5.62.41-9.41,6.5-6.04,10.07,5.57,44.13,21.6,46.44,33.16v5.04s9.48,11.61,9.48,12.3-.69,18.73-12.95,25.9Z" style="fill: #af7e69;"/>
        <g>
          <g>
            <path d="m13.28,232.23c-.42-.52,51.72,83.52,51.72,83.52l2.37,28.2h81.36l-7.55-32.1s-14.07-37.7-13.91-38.14c.31-.86-26.32-42.75-26.32-42.75l-87.67,1.28Z" style="fill: #fff;"/>
            <path d="m13.28,232.23s.55-.03,1.59-.05c1.06-.02,2.61-.05,4.63-.1,4.07-.07,10.03-.18,17.66-.31,15.26-.25,37.16-.6,63.78-1.03h.12s.06.1.06.1c6.97,10.99,14.63,23.03,22.58,36.05.99,1.63,1.98,3.28,2.93,4.96.24.42.47.85.69,1.3.05.12.11.22.16.37,0,.03.03.07.03.18-.02.13,0,.08.01.09,0,0,.01,0,0,0l.02.08.22.68c.32.92.64,1.84.96,2.77,1.34,3.69,2.7,7.43,4.08,11.22,2.8,7.56,5.67,15.31,8.6,23.21v.02s0,.02,0,.02c2.29,9.74,4.69,19.95,7.14,30.34.14.59.28,1.18.41,1.76l.08.32h-.33c-28.95,0-56.49-.01-81.36-.02h-.22s-.02-.22-.02-.22c-.82-9.86-1.6-19.27-2.35-28.2l.03.1c-15.55-25.15-28.46-46.04-37.49-60.65-4.49-7.31-8.01-13.04-10.42-16.96-1.19-1.95-2.1-3.45-2.72-4.48-.3-.5-.53-.89-.69-1.15-.15-.26-.23-.39-.22-.4.98,1.57,20.72,33.3,51.91,83.4l.03.04v.05c.76,8.92,1.56,18.33,2.39,28.2l-.24-.22c24.87,0,52.41-.01,81.36-.02l-.25.32c-.14-.58-.27-1.17-.41-1.76-2.44-10.39-4.84-20.61-7.13-30.34v.03c-2.92-7.91-5.79-15.66-8.58-23.22-1.37-3.79-2.73-7.53-4.07-11.22-.32-.93-.64-1.85-.96-2.78l-.22-.71-.03-.09c-.01-.05-.02-.12-.02-.18v-.09c-.18-.08.27.06.16.03-.05-.02-.09-.02-.14-.02-.07,0-.01.04-.03.03v-.03c-.04-.08-.09-.2-.14-.3-.21-.42-.44-.85-.68-1.27-.95-1.68-1.94-3.32-2.92-4.95-7.92-13.01-15.57-25.07-22.52-36.07l.18.1c-26.66.35-48.59.63-63.86.83-7.61.09-13.57.15-17.63.2-2.01.02-3.56.03-4.61.04-1.04,0-1.57,0-1.57,0Z" style="fill: #263238;"/>
          </g>
          <path d="m119.99,275.79s-.25.03-.73.03c-.53,0-1.22,0-2.08,0-1.87-.04-4.47-.08-7.65-.14-6.46-.15-15.39-.39-25.24-.55-9.86-.15-18.79-.14-25.24.06-3.23.09-5.84.22-7.64.32-.86.05-1.55.09-2.08.12-.48.02-.73.02-.73,0,0-.02.25-.06.72-.11.52-.06,1.21-.13,2.07-.22,1.8-.16,4.41-.36,7.64-.49,6.46-.3,15.4-.36,25.26-.22,9.86.16,18.79.46,25.25.7,3.19.13,5.78.23,7.65.31.86.04,1.55.08,2.08.11.48.03.72.05.72.07Z" style="fill: #263238;"/>
          <path d="m129.99,313.21c-.02.14-11.52-1.11-25.7-2.81-14.18-1.69-25.66-3.18-25.64-3.32.02-.14,11.52,1.11,25.7,2.81,14.17,1.69,25.65,3.18,25.64,3.32Z" style="fill: #263238;"/>
        </g>
        <g>
          <path d="m55.02,318.9c5.07-.32,10.15-.65,15.22-.97,1.6-.1,3.36-.27,4.47-1.43,1.39-1.44.71-4.69-1.04-5.65l-17.44-4.2" style="fill: #af7e69;"/>
          <path d="m56.23,306.65s.48.05,1.35.23c.94.21,2.18.48,3.68.81,3.21.75,7.54,1.76,12.47,2.91h.04s.03.02.03.02c.66.38,1.16,1,1.46,1.68.31.69.48,1.45.45,2.22-.02.8-.29,1.66-.9,2.23-.58.56-1.32.89-2.05,1.08-1.47.36-2.87.33-4.19.43-2.63.15-5.02.28-7.05.39-1.94.09-3.55.16-4.76.22-1.12.04-1.75.05-1.75,0,0-.04.62-.11,1.74-.21,1.21-.1,2.81-.23,4.75-.39,2.03-.15,4.41-.32,7.04-.5,1.32-.12,2.74-.1,4.09-.44.67-.18,1.32-.47,1.82-.96.49-.46.72-1.16.74-1.88.04-1.36-.56-2.81-1.64-3.44l.06.02c-4.91-1.22-9.23-2.29-12.43-3.09-1.49-.39-2.71-.71-3.65-.96-.85-.23-1.31-.38-1.31-.41Z" style="fill: #7c5142;"/>
        </g>
        <g>
          <path d="m62.08,301.19c4.66.83,9.09,2.13,13.52,3.81,1.7.64,2.17,1.97,2,3.49-.08.74-.37,1.47-1,1.86-.63.4-1.39.52-2.13.59-4.38.42-8.58-.18-12.94-.79s-10.4,0-12.93,1.33" style="fill: #af7e69;"/>
          <path d="m48.59,311.48s.14-.1.43-.26c.3-.14.75-.33,1.34-.52,1.19-.37,2.97-.73,5.2-.9,1.11-.08,2.33-.12,3.65-.08,1.32.03,2.71.24,4.16.43,2.9.37,6.1.76,9.46.63.83-.05,1.68-.08,2.45-.22.77-.15,1.49-.47,1.79-1.13.57-1.32.37-3.11-.81-3.83-.55-.38-1.27-.56-1.91-.82-.65-.23-1.28-.46-1.9-.68-1.23-.43-2.38-.79-3.44-1.11-2.12-.63-3.86-1.06-5.07-1.34-1.21-.28-1.88-.43-1.87-.46,0-.02.17,0,.5.04.32.04.8.12,1.41.23,1.22.22,2.98.59,5.13,1.18,1.07.3,2.24.65,3.48,1.05.62.21,1.26.43,1.92.66.64.26,1.35.42,2.02.86.67.43,1.16,1.18,1.29,2,.12.81.09,1.65-.29,2.46-.19.39-.52.76-.92.97-.39.22-.81.35-1.23.43-.85.16-1.68.19-2.53.24-3.41.14-6.64-.27-9.55-.67-1.46-.21-2.82-.42-4.11-.47-1.29-.07-2.5-.05-3.6.01-2.2.12-3.97.42-5.16.72-1.2.3-1.8.63-1.83.58Z" style="fill: #7c5142;"/>
        </g>
        <g>
          <path d="m44.61,288.57c4,2.23,8,4.46,12,6.69,1.81,1.01,3.7,2.1,4.79,3.87s.99,4.44-.74,5.58c-1.36.89-3.16.56-4.74.16-4.48-1.13-8.89-2.54-13.2-4.19" style="fill: #af7e69;"/>
          <path d="m42.72,300.67s.61.16,1.69.53c1.08.36,2.63.89,4.57,1.48,1.94.6,4.26,1.27,6.86,1.91,1.28.31,2.7.65,4.01.23.64-.21,1.2-.66,1.55-1.26.35-.6.49-1.34.46-2.07-.04-1.49-.87-2.79-1.93-3.73-1.05-.96-2.28-1.64-3.45-2.3-2.32-1.32-4.41-2.51-6.2-3.52-1.7-.99-3.1-1.8-4.16-2.41-.98-.58-1.51-.92-1.49-.95s.58.24,1.59.77c1.08.58,2.51,1.34,4.24,2.27,1.81.99,3.92,2.15,6.26,3.43,1.17.65,2.44,1.34,3.56,2.35.55.5,1.07,1.09,1.46,1.78.39.69.61,1.49.65,2.3.04.81-.12,1.64-.53,2.35-.4.71-1.09,1.25-1.83,1.49-1.52.48-3,.08-4.29-.24-2.6-.68-4.92-1.38-6.85-2.03-1.93-.64-3.47-1.22-4.53-1.64-.53-.21-.94-.38-1.21-.5-.27-.12-.41-.19-.41-.21Z" style="fill: #7c5142;"/>
        </g>
      </g>
      <path d="m329.84,371.72l-5.7-1.61-18.12-1.69-5.07-6.74,3.53-14.54,22.65-5.39c10.46,7.44,7.64,19.84,2.72,29.97Z" style="fill: #af7e69;"/>
      <g>
        <g>
          <path d="m277.14,335.23c-1.85-.18-4.63-.19-6.36.5-2.66,1.06-4.68,3.76-5.04,6.6-.59,4.66-.77,8.44-1.1,12.78-.09,1.11.41,2.27,1.19,3.07,1.42,1.46,4.02.97,5.49-.44,1.47-1.41,2.13-3.43,2.84-5.34.71-1.91,1.46-6.48,2.57-6.88,3.15-1.14,7.45,4.3,9.82,1.63l4.3-10.5c-6.67-.65-7.04-.77-13.71-1.42Z" style="fill: #af7e69;"/>
          <path d="m277.14,335.23s.08-.01.24,0c.19.01.43.03.71.04.67.06,1.58.13,2.73.23,2.42.23,5.83.56,10.03.96l.25.02-.1.24c-1.24,3.06-2.68,6.62-4.26,10.51v.04s-.04.03-.04.03c-.49.57-1.31.89-2.07.81-.76-.07-1.46-.34-2.13-.64-1.33-.61-2.62-1.41-4.04-1.75l-.53-.09h-.53c-.18.01-.34.08-.51.11-.18.03-.23.11-.35.23-.41.54-.66,1.32-.89,2.05-.47,1.5-.77,3.08-1.34,4.64-.52,1.4-1.01,2.83-1.85,4.08-.42.62-.92,1.19-1.54,1.64-.62.43-1.32.73-2.05.86-.73.13-1.5.09-2.2-.19-.7-.29-1.25-.85-1.62-1.44-.38-.61-.62-1.3-.66-2.01-.02-.73.08-1.33.12-2,.19-2.58.36-5.04.59-7.34.11-1.15.23-2.26.37-3.32.1-1.06.35-2.12.79-3.02.85-1.82,2.2-3.14,3.59-3.9,1.4-.79,2.81-.89,3.9-.96,1.1-.05,1.96,0,2.53.05.29.03.51.05.65.07.15.02.22.04.22.05,0,.02-.3,0-.88-.01-.58-.01-1.43-.03-2.51.05-1.07.1-2.44.23-3.77,1.01-1.32.75-2.61,2.05-3.4,3.8-.41.88-.63,1.85-.72,2.91-.12,1.06-.23,2.17-.34,3.31-.21,2.29-.36,4.75-.54,7.33-.03.63-.13,1.33-.11,1.93.04.62.25,1.23.6,1.77.34.54.81,1.01,1.39,1.24.59.24,1.26.28,1.92.16,1.33-.23,2.5-1.09,3.26-2.28.79-1.18,1.28-2.57,1.8-3.97.54-1.5.85-3.09,1.33-4.62.25-.76.47-1.52.99-2.23.09-.08.14-.18.26-.24.12-.08.23-.14.33-.15.21-.04.41-.11.62-.12.21,0,.42,0,.62,0l.6.1c1.55.39,2.83,1.21,4.13,1.8.65.3,1.31.55,1.96.61.65.07,1.25-.17,1.68-.64l-.04.07c1.61-3.89,3.08-7.43,4.35-10.48l.16.26c-4.23-.43-7.65-.86-10.02-1.13-1.15-.14-2.05-.25-2.72-.33-.28-.04-.52-.07-.71-.1-.16-.02-.24-.04-.24-.05Z" style="fill: #7c5142;"/>
        </g>
        <g>
          <g>
            <path d="m315.35,336.56s-2.25-.7-5.29,1.51c0,0-1.14-5-5.13-5.98-2.9-.71-6.58,2.26-6.58,2.26,0,0-2.5-5-9.17-2.92-5.52,1.72-17.09,35.94-18.09,38.24-1.14,2.63,3.54,5.92,6.12,3.27,2.71-2.78,11.8-17.98,11.8-17.98l-6.05,21.32c-.16.7-.14,1.42.06,2.11.65,2.17,4.92,4.71,7.93.62,3.75-5.08,7.57-15.56,7.57-15.56l3.69-8.04s-6.88,21.3-4.38,23.24c2.5,1.94,5.71,1.19,8-3.81,2.29-5,10.63-20.84,10.63-20.84l3.96-2.08-1.46,5s-7.58,3.96-5.88,7.5,5.28,2.49,8.79.83c3.51-1.66,6.57-9.89,8.44-13.27,1.68-3.03,1.84-11.93-5.35-12.27-1.54-.07-3.03.55-4.12,1.64l-.36.36s-1.18-4.44-5.16-5.14Z" style="fill: #af7e69;"/>
            <path d="m315.35,336.56s.16.02.48.09c.16.03.35.09.58.18.23.07.49.2.77.35,1.12.6,2.63,2.04,3.41,4.5l-.14-.04c.83-.93,2.08-1.83,3.69-2.01,1.57-.11,3.42.23,4.88,1.5,1.45,1.27,2.22,3.33,2.37,5.49.07,1.09.02,2.22-.21,3.35-.12.57-.28,1.14-.53,1.69-.25.56-.55,1.05-.81,1.61-1.07,2.17-2.09,4.52-3.4,6.87-.66,1.17-1.38,2.35-2.3,3.44-.45.55-.98,1.05-1.58,1.48-.64.41-1.3.67-1.98.97-1.36.54-2.83,1.06-4.42.91-.79-.08-1.58-.41-2.17-.96-.3-.27-.55-.6-.77-.94l-.3-.53c-.07-.2-.13-.4-.2-.6-.19-.84.07-1.7.48-2.42.41-.73.99-1.32,1.58-1.9,1.22-1.12,2.6-2.06,4.09-2.88l-.11.13c.45-1.54.95-3.26,1.45-5l.31.26c-1.22.64-2.58,1.36-3.96,2.09l.09-.09c-1.97,3.81-4.02,7.76-6.13,11.83-1.03,2.05-2.08,4.12-3.14,6.23-.51,1.06-1.03,2.13-1.55,3.21-.54,1.09-1.2,2.14-2.09,3.02-.88.88-2.11,1.54-3.44,1.49-.66-.03-1.29-.23-1.86-.54-.29-.15-.55-.33-.82-.54-.3-.28-.4-.63-.48-.95-.24-1.3-.08-2.56.07-3.81.17-1.25.4-2.5.66-3.74,1.07-4.97,2.5-9.94,4.08-14.96l.48.19c-1.17,2.54-2.42,5.28-3.69,8.04v-.02c-.83,2.26-1.82,4.65-2.88,7.02-.79,1.75-1.63,3.47-2.55,5.14-.46.83-.95,1.65-1.47,2.45-.55.77-1.06,1.61-1.85,2.22-.76.62-1.73,1.03-2.73,1.06-1,.02-1.97-.31-2.78-.84-.8-.54-1.5-1.31-1.77-2.29-.12-.48-.16-.97-.12-1.46.03-.5.2-.95.32-1.38,2-7.06,3.96-13.93,5.84-20.57l.45.2c-2.31,3.84-4.62,7.57-6.95,11.17-1.17,1.8-2.34,3.56-3.59,5.25-.65.81-1.23,1.74-2.24,2.27-.99.54-2.19.42-3.16.03-.98-.41-1.83-1.14-2.31-2.1-.23-.49-.32-1.04-.25-1.59.14-.56.34-.96.51-1.44.68-1.85,1.35-3.67,2.01-5.47,1.32-3.58,2.64-7.04,3.96-10.34,1.32-3.3,2.64-6.45,4-9.43,1.37-2.97,2.74-5.78,4.32-8.3.8-1.24,1.62-2.47,2.75-3.37.27-.24.63-.39.96-.51.34-.09.67-.17,1-.26.67-.13,1.35-.22,2.02-.21,2.7-.06,5.1,1.48,6.22,3.51l-.2-.04c1.41-1.05,2.87-1.84,4.37-2.21.74-.18,1.5-.23,2.21-.07.69.17,1.33.43,1.87.81,1.1.71,1.81,1.71,2.35,2.62.52.94.86,1.83,1.07,2.66l-.11-.04c1.59-1.15,3.04-1.52,3.96-1.58.94-.06,1.37.12,1.37.12,0,0-.11-.02-.33-.05-.22-.02-.57-.05-1.03,0-.91.08-2.32.46-3.89,1.62l-.08.06-.03-.1c-.21-.8-.56-1.69-1.08-2.61-.54-.89-1.25-1.86-2.32-2.54-.52-.36-1.14-.6-1.8-.76-.66-.14-1.39-.09-2.11.08-1.44.36-2.89,1.15-4.25,2.19l-.12.09-.08-.14c-1.08-1.92-3.39-3.4-5.98-3.32-.64,0-1.3.09-1.95.22-.32.08-.65.17-.98.25-.31.12-.6.24-.86.47-1.06.84-1.88,2.06-2.66,3.29-1.55,2.5-2.91,5.31-4.26,8.27-1.34,2.97-2.66,6.12-3.96,9.43-1.31,3.3-2.61,6.75-3.93,10.34-.65,1.79-1.32,3.62-1.99,5.47-.16.46-.38.95-.48,1.36-.05.44.01.9.21,1.32.41.83,1.19,1.5,2.08,1.87.88.35,1.93.45,2.77-.02.84-.43,1.43-1.33,2.07-2.13,1.23-1.67,2.4-3.44,3.56-5.23,2.32-3.59,4.62-7.33,6.93-11.16l.96-1.6-.51,1.79c-1.88,6.63-3.82,13.51-5.82,20.56-.12.45-.27.87-.3,1.3-.04.43,0,.87.11,1.28.22.81.83,1.51,1.56,1.99.73.48,1.6.77,2.48.75.88-.02,1.72-.38,2.41-.94.71-.55,1.2-1.34,1.74-2.1.51-.79.99-1.59,1.45-2.42.91-1.65,1.74-3.36,2.53-5.1,1.06-2.36,2.04-4.74,2.88-6.99h0s0-.02,0-.02c1.27-2.76,2.52-5.5,3.69-8.04l.48.19c-1.57,5-3,9.97-4.07,14.91-.26,1.24-.49,2.47-.66,3.7-.15,1.22-.3,2.49-.08,3.63.06.28.16.55.32.69.21.17.47.35.72.48.51.28,1.07.45,1.65.48,1.15.04,2.25-.53,3.08-1.35,1.7-1.65,2.44-4.01,3.55-6.09,1.07-2.11,2.12-4.19,3.15-6.23,2.12-4.07,4.17-8.01,6.15-11.82l.03-.06.06-.03c1.38-.72,2.75-1.44,3.96-2.08l.46-.24-.15.5c-.51,1.74-1.01,3.46-1.46,5l-.02.09-.08.04c-1.45.79-2.82,1.72-4,2.8-.57.55-1.13,1.13-1.51,1.8-.38.66-.6,1.41-.45,2.12.39,1.42,1.63,2.63,3.09,2.73,1.46.14,2.9-.35,4.24-.87.66-.28,1.35-.56,1.91-.92.56-.4,1.07-.88,1.51-1.41.89-1.06,1.61-2.22,2.27-3.38,1.31-2.32,2.34-4.66,3.43-6.84.25-.54.58-1.08.81-1.59.24-.52.4-1.08.52-1.63.23-1.11.29-2.21.22-3.27-.14-2.11-.88-4.1-2.26-5.33-1.38-1.22-3.19-1.56-4.7-1.47-1.55.17-2.76,1.01-3.59,1.93l-.09.1-.04-.14c-.75-2.41-2.21-3.86-3.3-4.47-1.12-.62-1.8-.65-1.79-.69Z" style="fill: #7c5142;"/>
          </g>
          <path d="m305.97,345c.15.03-.49,3.1-1.91,6.67-.69,1.79-1.37,3.38-1.88,4.53-.51,1.15-.84,1.85-.91,1.82-.15-.06.9-2.98,2.3-6.53.69-1.78,1.28-3.4,1.68-4.58.4-1.18.64-1.92.71-1.9Z" style="fill: #7c5142;"/>
          <path d="m294.14,342.85c.14.07-1.13,2.87-2.54,6.38-1.38,3.53-2.61,6.36-2.76,6.3-.07-.03.17-.76.58-1.94.41-1.17.99-2.79,1.7-4.56.71-1.77,1.43-3.33,1.99-4.44.56-1.11.96-1.77,1.03-1.74Z" style="fill: #7c5142;"/>
        </g>
      </g>
    </g>
  </g>
</svg>